<svg role="img" viewBox="0 0 24 24" xmlns="http://www.w3.org/2000/svg">
  <title>Instagram</title>
  <path d="M12 2.163c3.204 0 3.584.012 4.85.07 1.17.056 1.97.24 2.42.405a4.919 4.919 0 011.675 1.042 4.919 4.919 0 011.042 1.675c.165.45.35 1.25.405 2.42.058 1.266.07 1.646.07 4.85s-.012 3.584-.07 4.85c-.056 1.17-.24 1.97-.405 2.42a4.919 4.919 0 01-1.042 1.675 4.919 4.919 0 01-1.675 1.042c-.45.165-1.25.35-2.42.405-1.266.058-1.646.07-4.85.07s-3.584-.012-4.85-.07c-1.17-.056-1.97-.24-2.42-.405a4.919 4.919 0 01-1.675-1.042 4.919 4.919 0 01-1.042-1.675c-.165-.45-.35-1.25-.405-2.42C2.175 15.747 2.163 15.367 2.163 12s.012-3.584.07-4.85c.056-1.17.24-1.97.405-2.42a4.919 4.919 0 011.042-1.675 4.919 4.919 0 011.675-1.042c.45-.165 1.25-.35 2.42-.405C8.416 2.175 8.796 2.163 12 2.163zm0-2.163C8.741 0 8.332.013 7.052.072 5.772.132 4.68.37 3.8.735a7.001 7.001 0 00-2.55 1.664A7.001 7.001 0 00.735 4.95c-.365.88-.603 1.972-.663 3.252C.013 8.332 0 8.741 0 12s.013 3.668.072 4.948c.06 1.28.298 2.372.663 3.252a7.001 7.001 0 001.665 2.55 7.001 7.001 0 002.55 1.665c.88.365 1.972.603 3.252.663C8.332 23.987 8.741 24 12 24s3.668-.013 4.948-.072c1.28-.06 2.372-.298 3.252-.663a7.001 7.001 0 002.55-1.665 7.001 7.001 0 001.665-2.55c.365-.88.603-1.972.663-3.252.059-1.28.072-1.689.072-4.948s-.013-3.668-.072-4.948c-.06-1.28-.298-2.372-.663-3.252A7.001 7.001 0 0020.2.735 7.001 7.001 0 0017.65.07C16.77-.295 15.678-.533 14.398-.593 13.118-.653 12.709-.666 12-.666zM12 5.838a6.162 6.162 0 100 12.324 6.162 6.162 0 000-12.324zm0 10.162a3.999 3.999 0 110-7.998 3.999 3.999 0 010 7.998zm6.406-11.845a1.44 1.44 0 11-2.88 0 1.44 1.44 0 012.88 0z"/>
</svg>