<svg version="1.1" id="Layer_1" xmlns="http://www.w3.org/2000/svg" xmlns:xlink="http://www.w3.org/1999/xlink" x="0px" y="0px"
	 width="100%" viewBox="0 0 300 377" enable-background="new 0 0 300 377" xml:space="preserve">
<path fill="#000000" opacity="1.000000" stroke="none" 
	d="
M301.000000,107.000000 
	C301.000000,197.236877 301.000000,287.473755 301.000000,378.000000 
	C254.979507,378.000000 208.958420,378.000000 162.462708,377.609070 
	C160.103867,372.202637 155.776367,374.264893 152.382614,374.213318 
	C151.607742,374.201538 150.795197,376.671997 150.000000,378.000000 
	C100.385605,378.000000 50.771214,378.000000 1.000000,378.000000 
	C1.000000,289.312500 1.000000,200.624908 1.284453,111.156738 
	C3.392950,109.741524 5.259215,109.205673 7.030863,108.448441 
	C9.511830,107.388031 12.258641,104.775917 14.299218,105.270782 
	C20.167789,106.694000 23.949633,103.103584 28.528173,101.145828 
	C30.611715,100.254921 35.106796,99.903755 35.247772,100.346313 
	C36.954494,105.704140 39.490662,101.897690 41.220123,100.887215 
	C46.227421,97.961555 51.065636,94.739029 55.886398,91.507973 
	C56.846367,90.864548 57.434456,89.666283 58.488445,88.358574 
	C45.386116,86.926476 35.718639,95.031509 24.566936,98.270538 
	C24.566936,96.242378 24.566936,94.678993 24.566936,93.219124 
	C26.450886,91.924294 28.421930,90.569603 30.392973,89.214905 
	C30.060581,88.541107 29.728189,87.867310 29.395796,87.193512 
	C24.911211,88.648430 20.349216,89.915321 16.002420,91.704926 
	C15.046341,92.098541 14.753205,94.320534 14.356599,95.756310 
	C14.177641,96.404175 14.815294,97.647621 14.536961,97.842735 
	C10.076759,100.969498 5.528339,103.970428 0.999999,107.000000 
	C1.000000,71.750412 1.000000,36.500820 1.000000,1.000000 
	C27.020355,1.000000 53.041519,1.000000 79.842682,1.342496 
	C79.812912,4.401816 79.003128,7.118641 78.216537,9.757663 
	C74.646164,9.530972 70.867126,9.291034 66.884575,9.038174 
	C70.046066,19.816561 89.644722,31.243717 95.623756,26.246529 
	C91.969704,23.243603 88.255180,20.325928 84.717682,17.207447 
	C83.548576,16.176828 82.835991,14.628354 81.914673,13.316655 
	C83.854065,12.644218 86.371918,10.844272 87.634109,11.491819 
	C93.533768,14.518555 99.087158,18.220211 104.764313,21.680647 
	C105.209305,21.513130 105.654297,21.345612 106.099289,21.178095 
	C105.174850,19.138372 104.682808,16.688965 103.227119,15.152587 
	C100.900581,12.697087 97.990379,10.769703 95.215790,8.773530 
	C93.699280,7.682481 91.950081,6.916537 90.313698,5.990054 
	C87.952454,4.653170 84.066437,5.240891 84.000000,1.000000 
	C156.234024,1.000000 228.468033,1.000000 301.000000,1.000000 
	C301.000000,34.686977 301.000000,68.374832 300.720154,102.829880 
	C294.531525,99.463997 288.622742,95.330917 283.592377,91.812286 
	C283.097595,90.173759 282.992767,88.165321 282.354340,87.978271 
	C277.745575,86.628082 273.028870,85.646492 268.346344,84.548103 
	C268.158997,85.107597 267.971649,85.667099 267.784302,86.226601 
	C270.315918,87.655357 272.847534,89.084114 274.456879,89.992386 
	C273.526337,93.448357 272.917053,95.711227 272.063232,97.639183 
	C265.200378,94.299774 259.493164,88.604607 250.289780,90.454002 
	C251.467789,91.760986 252.100449,92.924179 253.078217,93.477173 
	C264.308136,99.828476 275.576294,106.112976 286.889252,112.314911 
	C287.681885,112.749428 288.909454,112.390503 289.934784,112.400543 
	C289.465515,111.546135 289.203552,110.417526 288.493958,109.880959 
	C283.085846,105.791641 277.590393,101.817917 272.414307,97.382080 
	C275.757751,98.758766 278.716309,100.753517 281.896606,102.288963 
	C283.667725,103.144058 286.753845,104.265564 287.609161,103.481026 
	C290.464630,100.861816 292.245911,102.661034 294.514496,103.967758 
	C296.574921,105.154579 298.830475,106.002617 301.000000,107.000000 
M132.876373,52.621681 
	C131.753540,54.111702 130.630692,55.601719 129.040894,57.711384 
	C134.713608,57.773678 135.809113,56.856777 138.173233,50.695389 
	C136.109344,51.235004 134.501480,51.655392 132.293762,51.429695 
	C133.301498,49.522221 134.309250,47.614746 135.727295,44.930668 
	C133.212753,45.158051 131.722839,45.292782 130.098373,45.439678 
	C130.801758,43.418354 131.489136,41.443066 132.274948,39.184906 
	C126.170021,40.056225 125.928825,41.056458 128.622620,51.907997 
	C130.086014,51.907997 131.573410,51.907997 132.876373,52.621681 
M240.086670,98.567062 
	C240.274475,98.872673 240.547714,99.028389 241.177124,99.704460 
	C247.245682,105.701790 254.962204,102.406616 262.919342,104.378189 
	C261.807587,102.470650 261.553101,101.334877 260.927368,101.067276 
	C253.740952,97.994019 246.558182,94.887039 239.216476,92.224648 
	C237.851608,91.729691 235.786880,93.164627 234.045151,93.708885 
	C235.124252,94.825935 236.114838,96.053139 237.315948,97.018394 
	C238.027573,97.590286 239.071472,97.748703 240.086670,98.567062 
M225.000885,182.815201 
	C225.814224,184.862015 226.107056,187.445389 227.549011,188.844193 
	C230.571457,191.776184 234.198639,194.084763 238.924622,197.671783 
	C236.582489,187.190384 234.547302,178.082596 232.512100,168.974792 
	C231.792038,169.019669 231.071991,169.064529 230.351929,169.109406 
	C230.229202,170.836548 229.910141,172.576981 230.026016,174.287964 
	C230.244217,177.510101 230.713211,180.715256 230.724106,184.328964 
	C230.615707,184.470642 230.507309,184.612335 229.837723,184.250153 
	C228.594940,181.151154 227.352173,178.052139 226.003647,174.204147 
	C224.649612,171.484802 223.295578,168.765472 221.941544,166.046127 
	C221.409271,166.262924 220.876999,166.479706 220.344727,166.696503 
	C221.862656,171.811340 223.380585,176.926193 225.000885,182.815201 
M212.407822,26.957382 
	C210.771606,28.356266 209.252533,29.930788 207.474319,31.116753 
	C203.982422,33.445656 200.328064,35.529835 196.792755,37.796131 
	C196.342850,38.084534 196.203430,38.857250 195.917221,39.411285 
	C203.334442,43.034977 218.245255,42.419106 223.157120,38.716156 
	C220.938843,37.562984 218.829361,36.466373 215.900711,34.943924 
	C218.835159,33.652966 220.652069,32.593353 222.612061,32.047184 
	C226.347244,31.006348 224.818954,28.084097 224.756073,25.908695 
	C224.743851,25.486013 222.014618,24.720160 220.607651,24.851555 
	C218.062027,25.089285 215.568390,25.883730 212.407822,26.957382 
M170.403275,75.081413 
	C170.460144,78.932114 172.439209,79.645340 177.433289,78.951347 
	C182.771637,78.209503 188.231277,78.386795 193.621094,77.953163 
	C197.301437,77.657066 201.262772,79.134041 204.397476,77.077187 
	C201.353394,67.925858 194.040253,70.255875 187.678467,69.972870 
	C186.580429,69.924026 185.508362,69.402214 184.413879,69.142906 
	C179.226807,67.913994 172.891434,70.454315 170.403275,75.081413 
M192.092514,29.340639 
	C193.814072,27.026178 195.141678,23.275835 197.333267,22.674543 
	C203.204529,21.063686 209.515137,21.136864 215.518066,19.896618 
	C220.167374,18.936047 224.615768,17.003078 229.153473,15.502374 
	C228.994598,14.812896 228.835709,14.123419 228.676834,13.433941 
	C222.130920,13.741015 215.584991,14.048091 209.039078,14.355165 
	C206.745056,14.562531 204.747269,17.094311 202.337997,17.578470 
	C197.187195,18.613554 192.006653,18.852602 190.311157,25.163816 
	C190.130539,25.836174 189.557678,26.537855 188.971512,26.944464 
	C185.445007,29.390806 185.136490,30.570074 187.406601,35.644707 
	C188.083099,33.677555 188.389709,32.132462 189.150696,30.858856 
	C189.511536,30.254972 190.740280,30.169670 192.092514,29.340639 
M108.058701,107.468422 
	C108.762886,106.524513 109.467064,105.580597 109.697693,105.271461 
	C107.528313,103.857750 105.917000,102.542114 104.083664,101.724060 
	C103.154572,101.309479 101.361359,101.331673 100.750771,101.944916 
	C96.582092,106.131737 92.498184,110.421921 88.687675,114.932808 
	C87.755363,116.036476 87.940361,118.083961 87.705070,119.239014 
	C97.576050,119.820564 103.076416,114.513756 108.058701,107.468422 
M44.649330,178.875809 
	C43.753769,183.149384 40.184563,186.932480 41.905182,192.069275 
	C48.767921,186.429688 57.165947,164.323120 55.081432,158.145889 
	C47.621689,162.700699 44.850147,169.657272 44.649330,178.875809 
M189.817093,45.999184 
	C188.219177,46.715286 186.621246,47.431385 185.023331,48.147491 
	C186.632401,49.428951 188.150772,51.649570 189.867569,51.815350 
	C194.968124,52.307892 200.235992,52.581558 205.269073,51.820534 
	C210.007538,51.104050 215.635971,51.405750 218.910431,46.000465 
	C209.246536,46.000465 199.993164,46.000465 189.817093,45.999184 
M183.589386,211.911484 
	C183.166367,210.888168 182.743347,209.864853 182.320328,208.841553 
	C181.837143,208.932297 181.353958,209.023041 180.870758,209.113785 
	C181.623596,205.817444 182.376434,202.521088 183.129272,199.224747 
	C182.626389,198.970093 182.123520,198.715439 181.620636,198.460785 
	C180.582672,199.643417 179.345047,200.705185 178.542755,202.030472 
	C175.714569,206.702347 173.382599,211.715485 170.198059,216.118713 
	C167.287781,220.142700 167.198318,223.069809 172.089111,226.081039 
	C175.706421,221.587952 179.384140,217.019806 183.589386,211.911484 
M241.794876,176.277695 
	C241.200623,176.899078 240.134705,177.483765 240.083099,178.147354 
	C239.345535,187.631805 243.286942,196.118179 246.089188,204.824615 
	C246.431259,205.887405 248.135056,206.511917 250.267517,208.157150 
	C249.767227,200.747070 250.007248,194.735901 248.768692,189.046631 
	C247.813843,184.660614 247.876007,179.104996 241.794876,176.277695 
M66.292870,180.998535 
	C66.875511,180.595352 67.726250,180.324127 67.999626,179.768707 
	C70.968964,173.735825 74.226562,167.801971 76.601677,161.536377 
	C77.915375,158.070831 77.709824,154.029388 78.189110,150.247543 
	C77.625267,149.949478 77.061424,149.651413 76.497581,149.353363 
	C75.161880,150.898376 73.250221,152.231094 72.589081,154.024750 
	C69.543854,162.286469 66.817711,170.667130 64.106735,179.047058 
	C63.960209,179.499985 64.988625,180.333038 66.292870,180.998535 
M112.407654,51.004391 
	C106.880142,50.009663 101.365318,48.928345 95.811256,48.114906 
	C94.991928,47.994907 93.422600,48.986320 93.211243,49.745121 
	C92.950233,50.682133 93.540016,52.748566 94.117416,52.891457 
	C101.571129,54.736034 109.076477,56.387222 116.622643,57.799435 
	C117.012604,57.872414 118.705948,54.471001 118.398537,54.184898 
	C116.952728,52.839287 115.019836,52.017036 112.407654,51.004391 
M212.308517,53.813591 
	C201.260284,52.041229 190.456207,52.588585 180.026291,57.096470 
	C182.892197,58.000401 185.704193,58.000118 188.516190,58.000458 
	C196.143112,58.001369 203.770920,58.060547 211.395981,57.941776 
	C212.554535,57.923733 213.700211,57.080315 214.851852,56.618660 
	C214.282928,55.747276 213.713989,54.875893 212.308517,53.813591 
M102.924294,42.958694 
	C105.925575,42.958694 108.926849,42.958694 111.928131,42.958694 
	C111.995361,42.384438 112.062592,41.810181 112.129822,41.235928 
	C102.410446,36.374134 91.994034,33.776756 80.897400,32.671040 
	C82.311249,34.910831 83.910675,37.099464 86.028435,37.877850 
	C91.261978,39.801449 96.733025,41.078911 102.924294,42.958694 
M84.554901,103.962494 
	C80.611153,108.324387 76.667397,112.686272 72.412354,117.392464 
	C74.168549,118.380066 75.458061,119.105232 77.164169,120.064667 
	C83.514648,113.376213 89.688660,106.873604 96.244858,99.968475 
	C90.205078,97.521072 88.169891,101.778534 84.554901,103.962494 
M117.482666,202.063980 
	C114.328773,199.597687 111.174873,197.131409 108.041946,194.681519 
	C103.445412,199.978165 103.388596,201.642700 108.467690,204.719940 
	C113.222168,207.600525 118.366028,209.838409 123.338531,212.359146 
	C123.809319,211.761688 124.280098,211.164230 124.750877,210.566772 
	C122.484863,207.923309 120.218849,205.279846 117.482666,202.063980 
M71.974281,100.538963 
	C68.978439,104.054420 65.872551,107.485641 63.068779,111.148132 
	C62.416615,112.000031 62.792740,113.639130 62.695721,114.916016 
	C64.024147,114.548416 65.774429,114.596558 66.612732,113.745934 
	C72.173485,108.103371 77.575035,102.301353 82.923775,96.455505 
	C83.627083,95.686852 83.734970,94.373421 84.118629,93.312294 
	C83.718124,92.998413 83.317627,92.684525 82.917122,92.370636 
	C79.439102,94.917160 75.961075,97.463692 71.974281,100.538963 
M40.996014,174.765778 
	C40.519764,173.435333 40.043510,172.104874 39.567257,170.774429 
	C37.506672,172.489502 36.496513,174.108643 36.043682,175.871002 
	C34.576286,181.581924 33.254734,187.332779 32.014542,193.097839 
	C31.719505,194.469315 31.960098,195.956009 31.954327,197.389709 
	C33.322731,196.439346 35.522873,195.751053 35.918869,194.494293 
	C37.873600,188.290619 39.350685,181.936462 40.996014,174.765778 
M177.759613,65.993446 
	C185.901749,66.021179 194.043884,66.065308 202.186020,66.064331 
	C204.060577,66.064110 205.935089,65.909157 207.809631,65.825409 
	C207.826675,65.152100 207.843719,64.478783 207.860764,63.805473 
	C203.675507,62.911358 199.513992,61.433907 195.299347,61.262516 
	C189.271439,61.017391 183.198334,61.647701 177.162476,62.129116 
	C176.397415,62.190136 175.740585,63.608028 175.033630,64.397293 
	C175.643753,64.928223 176.253876,65.459160 177.759613,65.993446 
M92.037117,239.925781 
	C92.724564,244.003693 93.412010,248.081619 94.299660,253.347122 
	C97.138428,249.971237 93.785034,244.325546 99.945633,245.455460 
	C100.186249,245.499573 100.771454,244.500412 100.949196,243.912704 
	C101.910286,240.734818 97.940826,229.495972 94.145599,226.595291 
	C94.145599,229.705276 93.347733,232.476181 94.325066,234.291214 
	C95.955147,237.318405 93.882317,237.908798 92.037117,239.925781 
M50.954391,100.584435 
	C50.620777,101.501343 50.287163,102.418259 49.447414,104.726250 
	C54.375759,102.719559 58.227699,101.679832 61.476768,99.666977 
	C64.256721,97.944748 66.398453,95.157639 68.716202,92.739670 
	C69.771042,91.639221 70.569458,90.292976 71.484177,89.058220 
	C69.896782,89.049881 68.174644,88.646049 66.754875,89.129738 
	C64.825714,89.786964 63.011127,90.966354 61.355099,92.200493 
	C57.985554,94.711624 54.755112,97.409393 50.954391,100.584435 
M166.990448,187.527405 
	C164.806931,190.374985 162.623428,193.222580 159.763535,196.952271 
	C168.046326,197.248444 171.479935,192.008194 175.331711,187.925278 
	C176.956665,186.202835 177.235260,183.210220 178.125839,180.794968 
	C177.561676,180.486191 176.997498,180.177414 176.433334,179.868652 
	C173.453629,182.249344 170.473938,184.630051 166.990448,187.527405 
M196.447128,183.970978 
	C193.264404,180.868713 190.081680,177.766449 186.032608,173.819763 
	C186.134048,187.710678 197.289642,189.373169 203.952133,195.284393 
	C204.458679,194.818588 204.965225,194.352798 205.471771,193.886993 
	C202.637909,190.744003 199.804047,187.600998 196.447128,183.970978 
M255.971802,193.003815 
	C255.116440,192.038101 254.261078,191.072388 253.405716,190.106674 
	C252.958786,190.325394 252.511856,190.544098 252.064926,190.762817 
	C253.219574,199.522491 252.212555,208.664230 257.755890,216.694748 
	C260.263458,208.836624 257.268402,201.385620 255.971802,193.003815 
M181.038010,230.700180 
	C180.144409,235.302979 177.374924,239.785431 180.091995,245.011368 
	C180.913391,244.339188 181.870682,243.957382 182.052658,243.345123 
	C183.990555,236.825882 185.829636,230.276581 187.592758,223.707855 
	C187.696259,223.322281 186.936539,222.297882 186.538971,222.275589 
	C185.857559,222.237350 184.767654,222.565659 184.510391,223.074402 
	C183.373978,225.321564 182.473434,227.687988 181.038010,230.700180 
M264.994965,221.344162 
	C266.159973,214.819443 269.240173,208.176422 264.368683,200.698456 
	C260.660797,209.630417 260.315948,222.224930 263.266663,226.070908 
	C263.856049,224.723831 264.410065,223.457581 264.994965,221.344162 
M87.022011,254.182236 
	C94.255859,263.712646 94.375702,263.812256 98.197678,263.210724 
	C94.417427,256.449707 91.251152,249.416626 86.430801,243.469711 
	C85.752594,243.784622 85.074387,244.099518 84.396179,244.414413 
	C85.231583,247.412628 86.066978,250.410828 87.022011,254.182236 
M106.067757,221.585052 
	C109.132568,223.290009 112.197380,224.994965 115.262192,226.699921 
	C113.155006,218.396011 103.780602,211.594223 97.066895,212.853394 
	C100.178886,215.848068 102.877609,218.445084 106.067757,221.585052 
M210.608948,115.100044 
	C206.858170,111.347099 203.196320,107.496109 199.271347,103.935173 
	C198.596497,103.322922 196.739792,103.755241 195.570251,104.137314 
	C195.295746,104.226997 195.166962,106.589417 195.698563,107.031464 
	C200.017960,110.623207 204.494370,114.028564 209.014236,117.367142 
	C209.180359,117.489853 210.287491,116.338593 210.608948,115.100044 
M179.486618,251.003189 
	C177.830933,253.033157 176.175247,255.063110 174.519547,257.093079 
	C175.142670,257.619141 175.765778,258.145233 176.388901,258.671295 
	C182.026947,254.094421 187.431473,249.265320 190.983231,242.627487 
	C191.399780,241.849045 191.151001,240.714584 191.210678,239.745178 
	C190.133194,240.219589 188.767395,240.425110 188.029465,241.216232 
	C185.241699,244.205078 182.657852,247.384109 179.486618,251.003189 
M220.047134,96.079048 
	C225.005325,101.928276 236.112564,108.155670 240.763657,106.986595 
	C236.719604,103.813698 233.136459,100.894051 229.434357,98.133957 
	C226.737701,96.123474 224.075409,93.695747 220.047134,96.079048 
M214.822220,183.939529 
	C215.204941,183.532059 215.964096,183.070816 215.914703,182.725067 
	C214.959732,176.040573 213.962463,169.360413 212.797638,162.710236 
	C212.683533,162.058685 211.419662,161.608505 210.689468,161.064865 
	C210.127197,161.978943 208.943253,163.020187 209.100159,163.787140 
	C210.464294,170.455429 209.622803,177.704041 214.822220,183.939529 
M27.008394,202.108978 
	C27.344433,199.051346 28.057003,195.975357 27.908966,192.941345 
	C27.765392,189.998825 26.737793,187.099442 25.944172,183.476990 
	C21.896023,189.271774 21.952787,203.380249 25.458426,205.969025 
	C25.972467,204.963577 26.480696,203.969513 27.008394,202.108978 
M229.775574,109.961647 
	C232.740753,109.936348 233.017960,108.460709 230.831711,107.065254 
	C225.844818,103.882164 220.672287,100.965317 215.413651,98.253548 
	C214.377899,97.719421 212.615845,98.593735 211.188736,98.818504 
	C211.070663,99.332718 210.952606,99.846924 210.834549,100.361137 
	C216.914352,103.436836 222.994171,106.512527 229.775574,109.961647 
M87.012573,227.480698 
	C88.015068,225.684311 89.156517,223.946594 89.951813,222.062729 
	C90.270920,221.306870 89.829155,220.229782 89.733719,219.298904 
	C88.915672,219.608047 87.782410,219.676193 87.331474,220.266006 
	C84.695145,223.714218 81.885353,227.103424 79.827415,230.889420 
	C78.784676,232.807770 79.196480,235.516785 78.950684,237.868332 
	C79.342644,237.907562 79.734596,237.946808 80.126556,237.986038 
	C82.248856,234.661743 84.371155,231.337463 87.012573,227.480698 
M122.626762,198.089218 
	C118.433784,193.594894 114.240799,189.100571 110.047821,184.606247 
	C109.966469,191.710556 117.285828,200.192841 124.362373,202.438919 
	C123.877998,200.985168 123.489922,199.820450 122.626762,198.089218 
M182.185471,84.991295 
	C177.197556,84.600189 172.209641,84.209076 167.221710,83.817970 
	C166.996017,84.208496 166.770325,84.599014 166.544617,84.989540 
	C167.491928,85.983841 168.371475,87.756828 169.397522,87.846100 
	C176.072540,88.426834 182.779358,88.641846 189.475769,88.976555 
	C189.591888,88.535255 189.708008,88.093948 189.824142,87.652649 
	C187.570129,86.766693 185.316132,85.880730 182.185471,84.991295 
M118.195030,71.048859 
	C113.844528,70.607025 109.494034,70.165199 105.143532,69.723366 
	C109.054832,75.050308 123.948303,76.793175 126.968750,73.302246 
	C124.233780,72.673721 121.595963,72.067528 118.195030,71.048859 
M200.004440,203.497101 
	C197.206284,200.619781 194.408127,197.742462 191.609985,194.865158 
	C190.923126,195.528687 190.236282,196.192215 189.549438,196.855743 
	C194.246521,202.077759 198.943604,207.299774 204.117645,213.052048 
	C206.327408,207.660004 202.243042,206.414520 200.004440,203.497101 
M82.618141,159.900757 
	C81.197502,163.767914 76.699409,166.797943 79.290184,172.596680 
	C83.277710,164.423965 88.265137,157.450485 87.962227,148.618820 
	C87.502808,148.456055 87.043396,148.293289 86.583984,148.130524 
	C85.377594,151.813766 84.171204,155.497009 82.618141,159.900757 
M98.967209,153.130310 
	C98.967209,150.786697 98.967209,148.443085 98.967209,146.099472 
	C98.227539,146.009918 97.487869,145.920349 96.748199,145.830795 
	C95.210106,152.642838 93.672012,159.454880 92.133919,166.266907 
	C92.928207,166.508530 93.722496,166.750137 94.516785,166.991760 
	C95.879524,162.634003 97.242264,158.276245 98.967209,153.130310 
M200.858704,174.622650 
	C201.316483,168.191849 200.789154,161.927475 197.349594,156.086609 
	C196.874588,162.255051 197.471268,168.307159 198.220840,174.340240 
	C198.265381,174.698746 199.536819,174.904800 200.858704,174.622650 
M195.951309,231.626587 
	C196.069794,232.403992 196.188278,233.181396 196.325836,234.084045 
	C200.856873,230.848190 198.144699,219.972122 191.260651,216.653305 
	C192.810257,221.949387 194.129578,226.458389 195.951309,231.626587 
M108.685448,156.840210 
	C109.197411,152.641907 109.709381,148.443619 110.221352,144.245316 
	C109.544022,144.139343 108.866699,144.033371 108.189377,143.927399 
	C104.489571,149.165649 105.014648,155.342926 106.073509,161.838562 
	C106.748558,160.368286 107.423599,158.898026 108.685448,156.840210 
M124.033554,93.972977 
	C127.660912,93.972977 131.288269,93.972977 134.915619,93.972977 
	C130.361374,87.954918 124.520332,90.802437 119.296776,89.945038 
	C119.120598,90.380898 118.944420,90.816765 118.768242,91.252625 
	C120.244026,92.071915 121.719810,92.891205 124.033554,93.972977 
M86.972496,188.990082 
	C94.838440,187.905838 99.675583,184.819214 99.316185,180.344391 
	C94.995682,182.537766 90.881821,184.560104 86.861717,186.754211 
	C86.380821,187.016663 86.409843,188.213379 86.972496,188.990082 
M83.268845,211.972000 
	C86.649025,209.405792 90.029213,206.839584 94.038017,203.796127 
	C89.149368,202.979675 80.619553,207.719894 80.080551,210.949173 
	C79.674438,213.382278 80.846977,213.555756 83.268845,211.972000 
M190.196320,124.930573 
	C189.011826,120.099327 182.195221,114.295227 177.640305,114.629349 
	C179.707474,120.421425 185.531601,121.621620 190.196320,124.930573 
M121.533966,180.016449 
	C119.326141,176.944916 117.118324,173.873367 114.668259,170.464828 
	C112.677025,174.700562 115.952911,179.844528 123.357124,184.531845 
	C122.731354,182.644287 122.387985,181.608582 121.533966,180.016449 
M148.640747,344.075409 
	C151.932388,344.587280 155.216583,345.168823 158.525116,345.522797 
	C158.938538,345.567047 159.772308,344.452087 159.872162,343.792603 
	C159.954025,343.251984 159.370819,342.407074 158.845520,342.012268 
	C156.166901,339.999329 150.778503,340.760986 148.640747,344.075409 
M116.631241,109.914421 
	C114.127182,113.190010 111.623116,116.465607 109.119057,119.741203 
	C109.712196,120.197739 110.305328,120.654282 110.898460,121.110825 
	C114.111374,117.427139 117.324295,113.743454 121.438568,109.026344 
	C118.942978,109.211975 118.038506,109.279259 116.631241,109.914421 
M56.347721,178.806747 
	C61.546818,175.126953 62.715611,170.287766 58.776234,165.426422 
	C57.775166,170.036316 56.904785,174.044388 56.347721,178.806747 
M115.507614,31.940601 
	C116.417725,31.703945 117.707314,31.761679 118.163872,31.173162 
	C119.340027,29.657091 117.244728,21.724998 115.484520,20.127176 
	C115.010696,21.990101 114.243713,23.837799 114.145943,25.720253 
	C114.049225,27.582478 114.628090,29.479788 115.507614,31.940601 
M174.376007,96.994812 
	C175.762909,96.994812 177.149811,96.994812 178.992279,96.994812 
	C174.123993,92.740181 166.567398,91.834572 162.834747,95.252243 
	C166.666275,95.877396 170.088501,96.435768 174.376007,96.994812 
M122.961433,120.301025 
	C122.609497,121.333092 122.257561,122.365158 121.644135,124.164032 
	C125.298271,121.426193 128.113174,119.317146 131.042450,117.122406 
	C129.978455,115.505608 129.753494,112.063461 126.564331,115.034180 
	C125.177628,116.325920 124.175987,118.031021 122.961433,120.301025 
M179.995865,153.751144 
	C180.250580,156.695129 180.505295,159.639130 180.760010,162.583115 
	C181.249023,162.539200 181.738037,162.495270 182.227051,162.451355 
	C182.227051,157.740921 182.227051,153.030472 182.227051,148.320038 
	C181.874573,148.302521 181.522079,148.285019 181.169601,148.267502 
	C180.779083,149.803818 180.388580,151.340118 179.995865,153.751144 
M157.168884,313.990692 
	C160.348389,313.248383 159.913467,311.547943 157.439560,311.019684 
	C154.433029,310.377686 151.184891,310.867188 147.091019,310.867188 
	C150.036423,315.499481 153.502579,313.429047 157.168884,313.990692 
M157.420914,280.032562 
	C158.028748,275.620514 154.935699,276.068115 152.173737,275.988953 
	C149.598770,275.915100 147.513275,276.242523 148.175247,279.699829 
	C151.187317,280.023834 154.029419,280.329559 157.420914,280.032562 
M169.000259,146.771790 
	C169.713791,149.571411 170.427338,152.371048 171.140884,155.170670 
	C171.807922,155.077484 172.474960,154.984283 173.141998,154.891098 
	C172.971191,151.636063 172.800385,148.381012 172.629578,145.125977 
	C171.429123,145.395767 170.228653,145.665573 169.000259,146.771790 
M151.061584,183.444733 
	C151.122116,186.551575 151.182632,189.658417 151.243164,192.765259 
	C156.370163,187.543106 156.112823,184.526520 151.061584,183.444733 
M63.996147,162.446030 
	C65.571114,159.461151 67.643852,156.511566 63.964149,152.284927 
	C62.870216,155.883652 61.897888,158.816360 61.211411,161.814529 
	C61.152588,162.071411 62.992718,162.763092 63.996147,162.446030 
M172.949799,125.409912 
	C173.857590,125.832245 174.765366,126.254570 175.925934,126.794495 
	C173.611771,120.694954 171.237991,118.901649 166.530991,120.416847 
	C168.708801,122.151947 170.510513,123.587410 172.949799,125.409912 
M122.981178,147.054794 
	C122.572037,145.006699 122.162895,142.958603 121.753754,140.910492 
	C121.068619,140.953934 120.383484,140.997375 119.698349,141.040802 
	C119.510368,144.248871 119.322395,147.456940 119.134415,150.665024 
	C119.610512,150.740677 120.086609,150.816345 120.562706,150.892014 
	C121.284203,149.863373 122.005692,148.834732 122.981178,147.054794 
M162.729141,106.001778 
	C164.657166,106.001778 166.585175,106.001778 168.513199,106.001778 
	C166.779892,103.943176 164.690506,102.722618 162.435944,102.123955 
	C161.532730,101.884117 160.266052,103.013077 159.164825,103.519005 
	C160.072205,104.346161 160.979568,105.173317 162.729141,106.001778 
M120.286736,31.174950 
	C120.005257,33.672222 119.723785,36.169498 119.442307,38.666771 
	C120.070610,38.812317 120.698906,38.957867 121.327209,39.103413 
	C122.218590,36.655910 123.561569,34.263931 123.871292,31.744915 
	C124.166779,29.341679 122.901474,28.197588 120.286736,31.174950 
z"/>
<path fill="#E4E8ED" opacity="1.000000" stroke="none" 
	d="
M0.999999,107.399994 
	C5.528339,103.970428 10.076759,100.969498 14.536961,97.842735 
	C14.815294,97.647621 14.177641,96.404175 14.356599,95.756310 
	C14.753205,94.320534 15.046341,92.098541 16.002420,91.704926 
	C20.349216,89.915321 24.911211,88.648430 29.395796,87.193512 
	C29.728189,87.867310 30.060581,88.541107 30.392973,89.214905 
	C28.421930,90.569603 26.450886,91.924294 24.566936,93.219124 
	C24.566936,94.678993 24.566936,96.242378 24.566936,98.270538 
	C35.718639,95.031509 45.386116,86.926476 58.488445,88.358574 
	C57.434456,89.666283 56.846367,90.864548 55.886398,91.507973 
	C51.065636,94.739029 46.227421,97.961555 41.220123,100.887215 
	C39.490662,101.897690 36.954494,105.704140 35.247772,100.346313 
	C35.106796,99.903755 30.611715,100.254921 28.528173,101.145828 
	C23.949633,103.103584 20.167789,106.694000 14.299218,105.270782 
	C12.258641,104.775917 9.511830,107.388031 7.030863,108.448441 
	C5.259215,109.205673 3.392950,109.741524 1.284453,110.688080 
	C1.000000,109.933327 1.000000,108.866661 0.999999,107.399994 
z"/>
<path fill="#E6EAEE" opacity="1.000000" stroke="none" 
	d="
M83.600006,1.000000 
	C84.066437,5.240891 87.952454,4.653170 90.313698,5.990054 
	C91.950081,6.916537 93.699280,7.682481 95.215790,8.773530 
	C97.990379,10.769703 100.900581,12.697087 103.227119,15.152587 
	C104.682808,16.688965 105.174850,19.138372 106.099289,21.178095 
	C105.654297,21.345612 105.209305,21.513130 104.764313,21.680647 
	C99.087158,18.220211 93.533768,14.518555 87.634109,11.491819 
	C86.371918,10.844272 83.854065,12.644218 81.914673,13.316655 
	C82.835991,14.628354 83.548576,16.176828 84.717682,17.207447 
	C88.255180,20.325928 91.969704,23.243603 95.623756,26.246529 
	C89.644722,31.243717 70.046066,19.816561 66.884575,9.038174 
	C70.867126,9.291034 74.646164,9.530972 78.216537,9.757663 
	C79.003128,7.118641 79.812912,4.401816 80.311340,1.342496 
	C81.066673,1.000000 82.133339,1.000000 83.600006,1.000000 
z"/>
<path fill="#E5E9EF" opacity="1.000000" stroke="none" 
	d="
M301.000000,106.600006 
	C298.830475,106.002617 296.574921,105.154579 294.514496,103.967758 
	C292.245911,102.661034 290.464630,100.861816 287.609161,103.481026 
	C286.753845,104.265564 283.667725,103.144058 281.896606,102.288963 
	C278.716309,100.753517 275.757751,98.758766 272.455750,97.397392 
	C272.204926,97.838844 272.307770,97.974098 272.307770,97.974098 
	C272.917053,95.711227 273.526337,93.448357 274.456879,89.992386 
	C272.847534,89.084114 270.315918,87.655357 267.784302,86.226601 
	C267.971649,85.667099 268.158997,85.107597 268.346344,84.548103 
	C273.028870,85.646492 277.745575,86.628082 282.354340,87.978271 
	C282.992767,88.165321 283.097595,90.173759 283.592377,91.812286 
	C288.622742,95.330917 294.531525,99.463997 300.720154,103.298538 
	C301.000000,104.066673 301.000000,105.133339 301.000000,106.600006 
z"/>
<path fill="#E1E9EB" opacity="1.000000" stroke="none" 
	d="
M150.460632,378.000000 
	C150.795197,376.671997 151.607742,374.201538 152.382614,374.213318 
	C155.776367,374.264893 160.103867,372.202637 161.994049,377.609070 
	C158.307098,378.000000 154.614182,378.000000 150.460632,378.000000 
z"/>
<path fill="#EBEEF1" opacity="1.000000" stroke="none" 
	d="
M212.730438,26.701557 
	C215.568390,25.883730 218.062027,25.089285 220.607651,24.851555 
	C222.014618,24.720160 224.743851,25.486013 224.756073,25.908695 
	C224.818954,28.084097 226.347244,31.006348 222.612061,32.047184 
	C220.652069,32.593353 218.835159,33.652966 215.900711,34.943924 
	C218.829361,36.466373 220.938843,37.562984 223.157120,38.716156 
	C218.245255,42.419106 203.334442,43.034977 195.917221,39.411285 
	C196.203430,38.857250 196.342850,38.084534 196.792755,37.796131 
	C200.328064,35.529835 203.982422,33.445656 207.474319,31.116753 
	C209.252533,29.930788 210.771606,28.356266 212.730438,26.701557 
z"/>
<path fill="#EAECF0" opacity="1.000000" stroke="none" 
	d="
M170.696213,74.796448 
	C172.891434,70.454315 179.226807,67.913994 184.413879,69.142906 
	C185.508362,69.402214 186.580429,69.924026 187.678467,69.972870 
	C194.040253,70.255875 201.353394,67.925858 204.397476,77.077187 
	C201.262772,79.134041 197.301437,77.657066 193.621094,77.953163 
	C188.231277,78.386795 182.771637,78.209503 177.433289,78.951347 
	C172.439209,79.645340 170.460144,78.932114 170.696213,74.796448 
z"/>
<path fill="#E7EAEE" opacity="1.000000" stroke="none" 
	d="
M191.834167,29.595036 
	C190.740280,30.169670 189.511536,30.254972 189.150696,30.858856 
	C188.389709,32.132462 188.083099,33.677555 187.406601,35.644707 
	C185.136490,30.570074 185.445007,29.390806 188.971512,26.944464 
	C189.557678,26.537855 190.130539,25.836174 190.311157,25.163816 
	C192.006653,18.852602 197.187195,18.613554 202.337997,17.578470 
	C204.747269,17.094311 206.745056,14.562531 209.039078,14.355165 
	C215.584991,14.048091 222.130920,13.741015 228.676834,13.433941 
	C228.835709,14.123419 228.994598,14.812896 229.153473,15.502374 
	C224.615768,17.003078 220.167374,18.936047 215.518066,19.896618 
	C209.515137,21.136864 203.204529,21.063686 197.333267,22.674543 
	C195.141678,23.275835 193.814072,27.026178 191.834167,29.595036 
z"/>
<path fill="#E7EAEF" opacity="1.000000" stroke="none" 
	d="
M272.063232,97.639183 
	C272.307770,97.974098 272.204926,97.838844 272.163513,97.823532 
	C277.590393,101.817917 283.085846,105.791641 288.493958,109.880959 
	C289.203552,110.417526 289.465515,111.546135 289.934784,112.400543 
	C288.909454,112.390503 287.681885,112.749428 286.889252,112.314911 
	C275.576294,106.112976 264.308136,99.828476 253.078217,93.477173 
	C252.100449,92.924179 251.467789,91.760986 250.289780,90.454002 
	C259.493164,88.604607 265.200378,94.299774 272.063232,97.639183 
z"/>
<path fill="#E5E8EE" opacity="1.000000" stroke="none" 
	d="
M108.013504,107.841812 
	C103.076416,114.513756 97.576050,119.820564 87.705070,119.239014 
	C87.940361,118.083961 87.755363,116.036476 88.687675,114.932808 
	C92.498184,110.421921 96.582092,106.131737 100.750771,101.944916 
	C101.361359,101.331673 103.154572,101.309479 104.083664,101.724060 
	C105.917000,102.542114 107.528313,103.857750 109.697693,105.271461 
	C109.467064,105.580597 108.762886,106.524513 108.013504,107.841812 
z"/>
<path fill="#EAECF0" opacity="1.000000" stroke="none" 
	d="
M44.810410,178.476242 
	C44.850147,169.657272 47.621689,162.700699 55.081432,158.145889 
	C57.165947,164.323120 48.767921,186.429688 41.905182,192.069275 
	C40.184563,186.932480 43.753769,183.149384 44.810410,178.476242 
z"/>
<path fill="#ECEDF1" opacity="1.000000" stroke="none" 
	d="
M190.278442,45.999825 
	C199.993164,46.000465 209.246536,46.000465 218.910431,46.000465 
	C215.635971,51.405750 210.007538,51.104050 205.269073,51.820534 
	C200.235992,52.581558 194.968124,52.307892 189.867569,51.815350 
	C188.150772,51.649570 186.632401,49.428951 185.023331,48.147491 
	C186.621246,47.431385 188.219177,46.715286 190.278442,45.999825 
z"/>
<path fill="#E9EBF0" opacity="1.000000" stroke="none" 
	d="
M183.325623,212.181580 
	C179.384140,217.019806 175.706421,221.587952 172.089111,226.081039 
	C167.198318,223.069809 167.287781,220.142700 170.198059,216.118713 
	C173.382599,211.715485 175.714569,206.702347 178.542755,202.030472 
	C179.345047,200.705185 180.582672,199.643417 181.620636,198.460785 
	C182.123520,198.715439 182.626389,198.970093 183.129272,199.224747 
	C182.376434,202.521088 181.623596,205.817444 180.870758,209.113785 
	C181.353958,209.023041 181.837143,208.932297 182.320328,208.841553 
	C182.743347,209.864853 183.166367,210.888168 183.325623,212.181580 
z"/>
<path fill="#EDEFF2" opacity="1.000000" stroke="none" 
	d="
M242.067413,176.582657 
	C247.876007,179.104996 247.813843,184.660614 248.768692,189.046631 
	C250.007248,194.735901 249.767227,200.747070 250.267517,208.157150 
	C248.135056,206.511917 246.431259,205.887405 246.089188,204.824615 
	C243.286942,196.118179 239.345535,187.631805 240.083099,178.147354 
	C240.134705,177.483765 241.200623,176.899078 242.067413,176.582657 
z"/>
<path fill="#E9ECEF" opacity="1.000000" stroke="none" 
	d="
M65.881485,180.993835 
	C64.988625,180.333038 63.960209,179.499985 64.106735,179.047058 
	C66.817711,170.667130 69.543854,162.286469 72.589081,154.024750 
	C73.250221,152.231094 75.161880,150.898376 76.497581,149.353363 
	C77.061424,149.651413 77.625267,149.949478 78.189110,150.247543 
	C77.709824,154.029388 77.915375,158.070831 76.601677,161.536377 
	C74.226562,167.801971 70.968964,173.735825 67.999626,179.768707 
	C67.726250,180.324127 66.875511,180.595352 65.881485,180.993835 
z"/>
<path fill="#E6EAEE" opacity="1.000000" stroke="none" 
	d="
M231.077942,183.927460 
	C230.713211,180.715256 230.244217,177.510101 230.026016,174.287964 
	C229.910141,172.576981 230.229202,170.836548 230.351929,169.109406 
	C231.071991,169.064529 231.792038,169.019669 232.512100,168.974792 
	C234.547302,178.082596 236.582489,187.190384 238.924622,197.671783 
	C234.198639,194.084763 230.571457,191.776184 227.549011,188.844193 
	C226.107056,187.445389 225.814224,184.862015 225.222992,182.201889 
	C225.666534,179.376770 225.887970,177.164948 226.109406,174.953140 
	C227.352173,178.052139 228.594940,181.151154 230.311218,184.722900 
	C231.120636,185.336166 231.456573,185.476715 231.792511,185.617249 
	C231.554306,185.053986 231.316116,184.490723 231.077942,183.927460 
z"/>
<path fill="#ECEDF1" opacity="1.000000" stroke="none" 
	d="
M112.834213,51.006195 
	C115.019836,52.017036 116.952728,52.839287 118.398537,54.184898 
	C118.705948,54.471001 117.012604,57.872414 116.622643,57.799435 
	C109.076477,56.387222 101.571129,54.736034 94.117416,52.891457 
	C93.540016,52.748566 92.950233,50.682133 93.211243,49.745121 
	C93.422600,48.986320 94.991928,47.994907 95.811256,48.114906 
	C101.365318,48.928345 106.880142,50.009663 112.834213,51.006195 
z"/>
<path fill="#EBEEF1" opacity="1.000000" stroke="none" 
	d="
M212.726791,53.909050 
	C213.713989,54.875893 214.282928,55.747276 214.851852,56.618660 
	C213.700211,57.080315 212.554535,57.923733 211.395981,57.941776 
	C203.770920,58.060547 196.143112,58.001369 188.516190,58.000458 
	C185.704193,58.000118 182.892197,58.000401 180.026291,57.096470 
	C190.456207,52.588585 201.260284,52.041229 212.726791,53.909050 
z"/>
<path fill="#E9EBEE" opacity="1.000000" stroke="none" 
	d="
M102.516449,42.787376 
	C96.733025,41.078911 91.261978,39.801449 86.028435,37.877850 
	C83.910675,37.099464 82.311249,34.910831 80.897400,32.671040 
	C91.994034,33.776756 102.410446,36.374134 112.129822,41.235928 
	C112.062592,41.810181 111.995361,42.384438 111.928131,42.958694 
	C108.926849,42.958694 105.925575,42.958694 102.516449,42.787376 
z"/>
<path fill="#E9EBEE" opacity="1.000000" stroke="none" 
	d="
M84.803040,103.692078 
	C88.169891,101.778534 90.205078,97.521072 96.244858,99.968475 
	C89.688660,106.873604 83.514648,113.376213 77.164169,120.064667 
	C75.458061,119.105232 74.168549,118.380066 72.412354,117.392464 
	C76.667397,112.686272 80.611153,108.324387 84.803040,103.692078 
z"/>
<path fill="#E4E7EB" opacity="1.000000" stroke="none" 
	d="
M117.717751,202.350174 
	C120.218849,205.279846 122.484863,207.923309 124.750877,210.566772 
	C124.280098,211.164230 123.809319,211.761688 123.338531,212.359146 
	C118.366028,209.838409 113.222168,207.600525 108.467690,204.719940 
	C103.388596,201.642700 103.445412,199.978165 108.041946,194.681519 
	C111.174873,197.131409 114.328773,199.597687 117.717751,202.350174 
z"/>
<path fill="#E9EBEE" opacity="1.000000" stroke="none" 
	d="
M72.228668,100.274590 
	C75.961075,97.463692 79.439102,94.917160 82.917122,92.370636 
	C83.317627,92.684525 83.718124,92.998413 84.118629,93.312294 
	C83.734970,94.373421 83.627083,95.686852 82.923775,96.455505 
	C77.575035,102.301353 72.173485,108.103371 66.612732,113.745934 
	C65.774429,114.596558 64.024147,114.548416 62.695721,114.916016 
	C62.792740,113.639130 62.416615,112.000031 63.068779,111.148132 
	C65.872551,107.485641 68.978439,104.054420 72.228668,100.274590 
z"/>
<path fill="#EAECF0" opacity="1.000000" stroke="none" 
	d="
M40.996140,175.200577 
	C39.350685,181.936462 37.873600,188.290619 35.918869,194.494293 
	C35.522873,195.751053 33.322731,196.439346 31.954327,197.389709 
	C31.960098,195.956009 31.719505,194.469315 32.014542,193.097839 
	C33.254734,187.332779 34.576286,181.581924 36.043682,175.871002 
	C36.496513,174.108643 37.506672,172.489502 39.567257,170.774429 
	C40.043510,172.104874 40.519764,173.435333 40.996140,175.200577 
z"/>
<path fill="#E9EBF0" opacity="1.000000" stroke="none" 
	d="
M177.311798,65.991776 
	C176.253876,65.459160 175.643753,64.928223 175.033630,64.397293 
	C175.740585,63.608028 176.397415,62.190136 177.162476,62.129116 
	C183.198334,61.647701 189.271439,61.017391 195.299347,61.262516 
	C199.513992,61.433907 203.675507,62.911358 207.860764,63.805473 
	C207.843719,64.478783 207.826675,65.152100 207.809631,65.825409 
	C205.935089,65.909157 204.060577,66.064110 202.186020,66.064331 
	C194.043884,66.065308 185.901749,66.021179 177.311798,65.991776 
z"/>
<path fill="#E9EBF0" opacity="1.000000" stroke="none" 
	d="
M92.194893,239.533920 
	C93.882317,237.908798 95.955147,237.318405 94.325066,234.291214 
	C93.347733,232.476181 94.145599,229.705276 94.145599,226.595291 
	C97.940826,229.495972 101.910286,240.734818 100.949196,243.912704 
	C100.771454,244.500412 100.186249,245.499573 99.945633,245.455460 
	C93.785034,244.325546 97.138428,249.971237 94.299660,253.347122 
	C93.412010,248.081619 92.724564,244.003693 92.194893,239.533920 
z"/>
<path fill="#E2E6EA" opacity="1.000000" stroke="none" 
	d="
M239.965973,98.093033 
	C239.071472,97.748703 238.027573,97.590286 237.315948,97.018394 
	C236.114838,96.053139 235.124252,94.825935 234.045151,93.708885 
	C235.786880,93.164627 237.851608,91.729691 239.216476,92.224648 
	C246.558182,94.887039 253.740952,97.994019 260.927368,101.067276 
	C261.553101,101.334877 261.807587,102.470650 262.919342,104.378189 
	C254.962204,102.406616 247.245682,105.701790 241.422318,99.364685 
	C243.622513,99.541199 245.577515,100.057487 248.909714,100.937462 
	C245.757980,95.835388 242.015793,94.773750 237.430786,93.785515 
	C238.545410,95.679375 239.255692,96.886208 239.965973,98.093033 
z"/>
<path fill="#E7EAEE" opacity="1.000000" stroke="none" 
	d="
M51.210869,100.307343 
	C54.755112,97.409393 57.985554,94.711624 61.355099,92.200493 
	C63.011127,90.966354 64.825714,89.786964 66.754875,89.129738 
	C68.174644,88.646049 69.896782,89.049881 71.484177,89.058220 
	C70.569458,90.292976 69.771042,91.639221 68.716202,92.739670 
	C66.398453,95.157639 64.256721,97.944748 61.476768,99.666977 
	C58.227699,101.679832 54.375759,102.719559 49.447414,104.726250 
	C50.287163,102.418259 50.620777,101.501343 51.210869,100.307343 
z"/>
<path fill="#E9EBEE" opacity="1.000000" stroke="none" 
	d="
M167.242340,187.269073 
	C170.473938,184.630051 173.453629,182.249344 176.433334,179.868652 
	C176.997498,180.177414 177.561676,180.486191 178.125839,180.794968 
	C177.235260,183.210220 176.956665,186.202835 175.331711,187.925278 
	C171.479935,192.008194 168.046326,197.248444 159.763535,196.952271 
	C162.623428,193.222580 164.806931,190.374985 167.242340,187.269073 
z"/>
<path fill="#E4E8ED" opacity="1.000000" stroke="none" 
	d="
M196.708649,184.214493 
	C199.804047,187.600998 202.637909,190.744003 205.471771,193.886993 
	C204.965225,194.352798 204.458679,194.818588 203.952133,195.284393 
	C197.289642,189.373169 186.134048,187.710678 186.032608,173.819763 
	C190.081680,177.766449 193.264404,180.868713 196.708649,184.214493 
z"/>
<path fill="#E9ECEF" opacity="1.000000" stroke="none" 
	d="
M255.987259,193.409576 
	C257.268402,201.385620 260.263458,208.836624 257.755890,216.694748 
	C252.212555,208.664230 253.219574,199.522491 252.064926,190.762817 
	C252.511856,190.544098 252.958786,190.325394 253.405716,190.106674 
	C254.261078,191.072388 255.116440,192.038101 255.987259,193.409576 
z"/>
<path fill="#EAECF0" opacity="1.000000" stroke="none" 
	d="
M181.262756,230.355713 
	C182.473434,227.687988 183.373978,225.321564 184.510391,223.074402 
	C184.767654,222.565659 185.857559,222.237350 186.538971,222.275589 
	C186.936539,222.297882 187.696259,223.322281 187.592758,223.707855 
	C185.829636,230.276581 183.990555,236.825882 182.052658,243.345123 
	C181.870682,243.957382 180.913391,244.339188 180.091995,245.011368 
	C177.374924,239.785431 180.144409,235.302979 181.262756,230.355713 
z"/>
<path fill="#EDEFF2" opacity="1.000000" stroke="none" 
	d="
M264.979492,221.767746 
	C264.410065,223.457581 263.856049,224.723831 263.266663,226.070908 
	C260.315948,222.224930 260.660797,209.630417 264.368683,200.698456 
	C269.240173,208.176422 266.159973,214.819443 264.979492,221.767746 
z"/>
<path fill="#E9EBEE" opacity="1.000000" stroke="none" 
	d="
M86.962196,253.795639 
	C86.066978,250.410828 85.231583,247.412628 84.396179,244.414413 
	C85.074387,244.099518 85.752594,243.784622 86.430801,243.469711 
	C91.251152,249.416626 94.417427,256.449707 98.197678,263.210724 
	C94.375702,263.812256 94.255859,263.712646 86.962196,253.795639 
z"/>
<path fill="#E6E9EC" opacity="1.000000" stroke="none" 
	d="
M105.822052,221.313568 
	C102.877609,218.445084 100.178886,215.848068 97.066895,212.853394 
	C103.780602,211.594223 113.155006,218.396011 115.262192,226.699921 
	C112.197380,224.994965 109.132568,223.290009 105.822052,221.313568 
z"/>
<path fill="#E6E9EC" opacity="1.000000" stroke="none" 
	d="
M210.782516,115.440536 
	C210.287491,116.338593 209.180359,117.489853 209.014236,117.367142 
	C204.494370,114.028564 200.017960,110.623207 195.698563,107.031464 
	C195.166962,106.589417 195.295746,104.226997 195.570251,104.137314 
	C196.739792,103.755241 198.596497,103.322922 199.271347,103.935173 
	C203.196320,107.496109 206.858170,111.347099 210.782516,115.440536 
z"/>
<path fill="#E9EBF0" opacity="1.000000" stroke="none" 
	d="
M179.742142,250.747559 
	C182.657852,247.384109 185.241699,244.205078 188.029465,241.216232 
	C188.767395,240.425110 190.133194,240.219589 191.210678,239.745178 
	C191.151001,240.714584 191.399780,241.849045 190.983231,242.627487 
	C187.431473,249.265320 182.026947,254.094421 176.388901,258.671295 
	C175.765778,258.145233 175.142670,257.619141 174.519547,257.093079 
	C176.175247,255.063110 177.830933,253.033157 179.742142,250.747559 
z"/>
<path fill="#E4E8ED" opacity="1.000000" stroke="none" 
	d="
M220.136475,95.689255 
	C224.075409,93.695747 226.737701,96.123474 229.434357,98.133957 
	C233.136459,100.894051 236.719604,103.813698 240.763657,106.986595 
	C236.112564,108.155670 225.005325,101.928276 220.136475,95.689255 
z"/>
<path fill="#E7EAEF" opacity="1.000000" stroke="none" 
	d="
M214.457092,183.760834 
	C209.622803,177.704041 210.464294,170.455429 209.100159,163.787140 
	C208.943253,163.020187 210.127197,161.978943 210.689468,161.064865 
	C211.419662,161.608505 212.683533,162.058685 212.797638,162.710236 
	C213.962463,169.360413 214.959732,176.040573 215.914703,182.725067 
	C215.964096,183.070816 215.204941,183.532059 214.457092,183.760834 
z"/>
<path fill="#EBEEF1" opacity="1.000000" stroke="none" 
	d="
M26.998661,202.542206 
	C26.480696,203.969513 25.972467,204.963577 25.458426,205.969025 
	C21.952787,203.380249 21.896023,189.271774 25.944172,183.476990 
	C26.737793,187.099442 27.765392,189.998825 27.908966,192.941345 
	C28.057003,195.975357 27.344433,199.051346 26.998661,202.542206 
z"/>
<path fill="#E2E6EA" opacity="1.000000" stroke="none" 
	d="
M229.424774,109.774933 
	C222.994171,106.512527 216.914352,103.436836 210.834549,100.361137 
	C210.952606,99.846924 211.070663,99.332718 211.188736,98.818504 
	C212.615845,98.593735 214.377899,97.719421 215.413651,98.253548 
	C220.672287,100.965317 225.844818,103.882164 230.831711,107.065254 
	C233.017960,108.460709 232.740753,109.936348 229.424774,109.774933 
z"/>
<path fill="#E6E9EC" opacity="1.000000" stroke="none" 
	d="
M86.753014,227.746933 
	C84.371155,231.337463 82.248856,234.661743 80.126556,237.986038 
	C79.734596,237.946808 79.342644,237.907562 78.950684,237.868332 
	C79.196480,235.516785 78.784676,232.807770 79.827415,230.889420 
	C81.885353,227.103424 84.695145,223.714218 87.331474,220.266006 
	C87.782410,219.676193 88.915672,219.608047 89.733719,219.298904 
	C89.829155,220.229782 90.270920,221.306870 89.951813,222.062729 
	C89.156517,223.946594 88.015068,225.684311 86.753014,227.746933 
z"/>
<path fill="#E4E8ED" opacity="1.000000" stroke="none" 
	d="
M122.864304,198.372467 
	C123.489922,199.820450 123.877998,200.985168 124.362373,202.438919 
	C117.285828,200.192841 109.966469,191.710556 110.047821,184.606247 
	C114.240799,189.100571 118.433784,193.594894 122.864304,198.372467 
z"/>
<path fill="#E6EAEE" opacity="1.000000" stroke="none" 
	d="
M182.623795,84.993027 
	C185.316132,85.880730 187.570129,86.766693 189.824142,87.652649 
	C189.708008,88.093948 189.591888,88.535255 189.475769,88.976555 
	C182.779358,88.641846 176.072540,88.426834 169.397522,87.846100 
	C168.371475,87.756828 167.491928,85.983841 166.544617,84.989540 
	C166.770325,84.599014 166.996017,84.208496 167.221710,83.817970 
	C172.209641,84.209076 177.197556,84.600189 182.623795,84.993027 
z"/>
<path fill="#E2E6EA" opacity="1.000000" stroke="none" 
	d="
M133.060791,51.907997 
	C131.573410,51.907997 130.086014,51.907997 128.622620,51.907997 
	C125.928825,41.056458 126.170021,40.056225 132.274948,39.184906 
	C131.489136,41.443066 130.801758,43.418354 130.098373,45.439678 
	C131.722839,45.292782 133.212753,45.158051 135.727295,44.930668 
	C134.309250,47.614746 133.301498,49.522221 132.631989,51.707317 
	C132.970230,51.984940 133.060791,51.907997 133.060791,51.907997 
z"/>
<path fill="#E1E4E8" opacity="1.000000" stroke="none" 
	d="
M118.576584,71.255096 
	C121.595963,72.067528 124.233780,72.673721 126.968750,73.302246 
	C123.948303,76.793175 109.054832,75.050308 105.143532,69.723366 
	C109.494034,70.165199 113.844528,70.607025 118.576584,71.255096 
z"/>
<path fill="#E5E8EE" opacity="1.000000" stroke="none" 
	d="
M200.262039,203.751740 
	C202.243042,206.414520 206.327408,207.660004 204.117645,213.052048 
	C198.943604,207.299774 194.246521,202.077759 189.549438,196.855743 
	C190.236282,196.192215 190.923126,195.528687 191.609985,194.865158 
	C194.408127,197.742462 197.206284,200.619781 200.262039,203.751740 
z"/>
<path fill="#DFE4E7" opacity="1.000000" stroke="none" 
	d="
M82.791473,159.540497 
	C84.171204,155.497009 85.377594,151.813766 86.583984,148.130524 
	C87.043396,148.293289 87.502808,148.456055 87.962227,148.618820 
	C88.265137,157.450485 83.277710,164.423965 79.290184,172.596680 
	C76.699409,166.797943 81.197502,163.767914 82.791473,159.540497 
z"/>
<path fill="#E1E4E8" opacity="1.000000" stroke="none" 
	d="
M98.786102,153.524399 
	C97.242264,158.276245 95.879524,162.634003 94.516785,166.991760 
	C93.722496,166.750137 92.928207,166.508530 92.133919,166.266907 
	C93.672012,159.454880 95.210106,152.642838 96.748199,145.830795 
	C97.487869,145.920349 98.227539,146.009918 98.967209,146.099472 
	C98.967209,148.443085 98.967209,150.786697 98.786102,153.524399 
z"/>
<path fill="#E6E9EC" opacity="1.000000" stroke="none" 
	d="
M200.548019,174.902222 
	C199.536819,174.904800 198.265381,174.698746 198.220840,174.340240 
	C197.471268,168.307159 196.874588,162.255051 197.349594,156.086609 
	C200.789154,161.927475 201.316483,168.191849 200.548019,174.902222 
z"/>
<path fill="#EAECF0" opacity="1.000000" stroke="none" 
	d="
M195.700104,231.296997 
	C194.129578,226.458389 192.810257,221.949387 191.260651,216.653305 
	C198.144699,219.972122 200.856873,230.848190 196.325836,234.084045 
	C196.188278,233.181396 196.069794,232.403992 195.700104,231.296997 
z"/>
<path fill="#E1E9EB" opacity="1.000000" stroke="none" 
	d="
M108.392044,157.133987 
	C107.423599,158.898026 106.748558,160.368286 106.073509,161.838562 
	C105.014648,155.342926 104.489571,149.165649 108.189377,143.927399 
	C108.866699,144.033371 109.544022,144.139343 110.221352,144.245316 
	C109.709381,148.443619 109.197411,152.641907 108.392044,157.133987 
z"/>
<path fill="#E4E7EB" opacity="1.000000" stroke="none" 
	d="
M123.614578,93.841736 
	C121.719810,92.891205 120.244026,92.071915 118.768242,91.252625 
	C118.944420,90.816765 119.120598,90.380898 119.296776,89.945038 
	C124.520332,90.802437 130.361374,87.954918 134.915619,93.972977 
	C131.288269,93.972977 127.660912,93.972977 123.614578,93.841736 
z"/>
<path fill="#E4E7EB" opacity="1.000000" stroke="none" 
	d="
M86.587502,188.983582 
	C86.409843,188.213379 86.380821,187.016663 86.861717,186.754211 
	C90.881821,184.560104 94.995682,182.537766 99.316185,180.344391 
	C99.675583,184.819214 94.838440,187.905838 86.587502,188.983582 
z"/>
<path fill="#E4E7EB" opacity="1.000000" stroke="none" 
	d="
M82.891586,212.011734 
	C80.846977,213.555756 79.674438,213.382278 80.080551,210.949173 
	C80.619553,207.719894 89.149368,202.979675 94.038017,203.796127 
	C90.029213,206.839584 86.649025,209.405792 82.891586,212.011734 
z"/>
<path fill="#D8E0E1" opacity="1.000000" stroke="none" 
	d="
M189.832672,124.919861 
	C185.531601,121.621620 179.707474,120.421425 177.640305,114.629349 
	C182.195221,114.295227 189.011826,120.099327 189.832672,124.919861 
z"/>
<path fill="#E1E9EB" opacity="1.000000" stroke="none" 
	d="
M121.789291,180.294662 
	C122.387985,181.608582 122.731354,182.644287 123.357124,184.531845 
	C115.952911,179.844528 112.677025,174.700562 114.668259,170.464828 
	C117.118324,173.873367 119.326141,176.944916 121.789291,180.294662 
z"/>
<path fill="#EAECF0" opacity="1.000000" stroke="none" 
	d="
M148.354980,343.759460 
	C150.778503,340.760986 156.166901,339.999329 158.845520,342.012268 
	C159.370819,342.407074 159.954025,343.251984 159.872162,343.792603 
	C159.772308,344.452087 158.938538,345.567047 158.525116,345.522797 
	C155.216583,345.168823 151.932388,344.587280 148.354980,343.759460 
z"/>
<path fill="#DFE4E7" opacity="1.000000" stroke="none" 
	d="
M116.882637,109.630478 
	C118.038506,109.279259 118.942978,109.211975 121.438568,109.026344 
	C117.324295,113.743454 114.111374,117.427139 110.898460,121.110825 
	C110.305328,120.654282 109.712196,120.197739 109.119057,119.741203 
	C111.623116,116.465607 114.127182,113.190010 116.882637,109.630478 
z"/>
<path fill="#E4E7EB" opacity="1.000000" stroke="none" 
	d="
M56.191063,178.429596 
	C56.904785,174.044388 57.775166,170.036316 58.776234,165.426422 
	C62.715611,170.287766 61.546818,175.126953 56.191063,178.429596 
z"/>
<path fill="#E1E9EB" opacity="1.000000" stroke="none" 
	d="
M115.209114,31.651155 
	C114.628090,29.479788 114.049225,27.582478 114.145943,25.720253 
	C114.243713,23.837799 115.010696,21.990101 115.477409,20.125233 
	C117.244728,21.724998 119.340027,29.657091 118.163872,31.173162 
	C117.707314,31.761679 116.417725,31.703945 115.209114,31.651155 
z"/>
<path fill="#DFE4E7" opacity="1.000000" stroke="none" 
	d="
M173.943375,96.994476 
	C170.088501,96.435768 166.666275,95.877396 162.834747,95.252243 
	C166.567398,91.834572 174.123993,92.740181 178.992279,96.994812 
	C177.149811,96.994812 175.762909,96.994812 173.943375,96.994476 
z"/>
<path fill="#D8E0E1" opacity="1.000000" stroke="none" 
	d="
M122.980446,119.924698 
	C124.175987,118.031021 125.177628,116.325920 126.564331,115.034180 
	C129.753494,112.063461 129.978455,115.505608 131.042450,117.122406 
	C128.113174,119.317146 125.298271,121.426193 121.644135,124.164032 
	C122.257561,122.365158 122.609497,121.333092 122.980446,119.924698 
z"/>
<path fill="#E1E4E8" opacity="1.000000" stroke="none" 
	d="
M179.996964,153.313782 
	C180.388580,151.340118 180.779083,149.803818 181.169601,148.267502 
	C181.522079,148.285019 181.874573,148.302521 182.227051,148.320038 
	C182.227051,153.030472 182.227051,157.740921 182.227051,162.451355 
	C181.738037,162.495270 181.249023,162.539200 180.760010,162.583115 
	C180.505295,159.639130 180.250580,156.695129 179.996964,153.313782 
z"/>
<path fill="#E6E9EC" opacity="1.000000" stroke="none" 
	d="
M156.722794,313.996185 
	C153.502579,313.429047 150.036423,315.499481 147.091019,310.867188 
	C151.184891,310.867188 154.433029,310.377686 157.439560,311.019684 
	C159.913467,311.547943 160.348389,313.248383 156.722794,313.996185 
z"/>
<path fill="#DFE4E7" opacity="1.000000" stroke="none" 
	d="
M226.056519,174.578644 
	C225.887970,177.164948 225.666534,179.376770 225.171814,181.814819 
	C223.380585,176.926193 221.862656,171.811340 220.344727,166.696503 
	C220.876999,166.479706 221.409271,166.262924 221.941544,166.046127 
	C223.295578,168.765472 224.649612,171.484802 226.056519,174.578644 
z"/>
<path fill="#E9EBEE" opacity="1.000000" stroke="none" 
	d="
M157.146210,280.333923 
	C154.029419,280.329559 151.187317,280.023834 148.175247,279.699829 
	C147.513275,276.242523 149.598770,275.915100 152.173737,275.988953 
	C154.935699,276.068115 158.028748,275.620514 157.146210,280.333923 
z"/>
<path fill="#E6E9EC" opacity="1.000000" stroke="none" 
	d="
M169.014221,146.353577 
	C170.228653,145.665573 171.429123,145.395767 172.629578,145.125977 
	C172.800385,148.381012 172.971191,151.636063 173.141998,154.891098 
	C172.474960,154.984283 171.807922,155.077484 171.140884,155.170670 
	C170.427338,152.371048 169.713791,149.571411 169.014221,146.353577 
z"/>
<path fill="#E9EBEE" opacity="1.000000" stroke="none" 
	d="
M151.420502,183.244659 
	C156.112823,184.526520 156.370163,187.543106 151.243164,192.765259 
	C151.182632,189.658417 151.122116,186.551575 151.420502,183.244659 
z"/>
<path fill="#ECEDF1" opacity="1.000000" stroke="none" 
	d="
M240.026321,98.330048 
	C239.255692,96.886208 238.545410,95.679375 237.430786,93.785515 
	C242.015793,94.773750 245.757980,95.835388 248.909714,100.937462 
	C245.577515,100.057487 243.622513,99.541199 241.286926,99.029564 
	C240.547714,99.028389 240.274475,98.872673 240.026321,98.330048 
z"/>
<path fill="#E4E7EB" opacity="1.000000" stroke="none" 
	d="
M132.931915,52.030357 
	C134.501480,51.655392 136.109344,51.235004 138.173233,50.695389 
	C135.809113,56.856777 134.713608,57.773678 129.040894,57.711384 
	C130.630692,55.601719 131.753540,54.111702 132.968582,52.264839 
	C133.060791,51.907997 132.970230,51.984940 132.931915,52.030357 
z"/>
<path fill="#DFE4E7" opacity="1.000000" stroke="none" 
	d="
M63.973427,162.849426 
	C62.992718,162.763092 61.152588,162.071411 61.211411,161.814529 
	C61.897888,158.816360 62.870216,155.883652 63.964149,152.284927 
	C67.643852,156.511566 65.571114,159.461151 63.973427,162.849426 
z"/>
<path fill="#D8E0E1" opacity="1.000000" stroke="none" 
	d="
M172.631012,125.216393 
	C170.510513,123.587410 168.708801,122.151947 166.530991,120.416847 
	C171.237991,118.901649 173.611771,120.694954 175.925934,126.794495 
	C174.765366,126.254570 173.857590,125.832245 172.631012,125.216393 
z"/>
<path fill="#DFE4E7" opacity="1.000000" stroke="none" 
	d="
M122.854179,147.430450 
	C122.005692,148.834732 121.284203,149.863373 120.562706,150.892014 
	C120.086609,150.816345 119.610512,150.740677 119.134415,150.665024 
	C119.322395,147.456940 119.510368,144.248871 119.698349,141.040802 
	C120.383484,140.997375 121.068619,140.953934 121.753754,140.910492 
	C122.162895,142.958603 122.572037,145.006699 122.854179,147.430450 
z"/>
<path fill="#E1E9EB" opacity="1.000000" stroke="none" 
	d="
M162.308044,106.001129 
	C160.979568,105.173317 160.072205,104.346161 159.164825,103.518997 
	C160.266052,103.013077 161.532730,101.884117 162.435944,102.123955 
	C164.690506,102.722618 166.779892,103.943176 168.513199,106.001778 
	C166.585175,106.001778 164.657166,106.001778 162.308044,106.001129 
z"/>
<path fill="#E2E6EA" opacity="1.000000" stroke="none" 
	d="
M120.578918,30.923523 
	C122.901474,28.197588 124.166779,29.341679 123.871292,31.744915 
	C123.561569,34.263931 122.218590,36.655910 121.327209,39.103413 
	C120.698906,38.957867 120.070610,38.812317 119.442307,38.666771 
	C119.723785,36.169498 120.005257,33.672222 120.578918,30.923523 
z"/>
<path fill="#000000" opacity="1.000000" stroke="none" 
	d="
M230.901016,184.128204 
	C231.316116,184.490723 231.554306,185.053986 231.792511,185.617249 
	C231.456573,185.476715 231.120636,185.336166 230.591797,184.974823 
	C230.507309,184.612335 230.615707,184.470642 230.901016,184.128204 
z"/>
</svg>