<svg version="1.1" id="Layer_1" xmlns="http://www.w3.org/2000/svg" xmlns:xlink="http://www.w3.org/1999/xlink" x="0px" y="0px"
	 width="100%" viewBox="0 0 1024 1024" enable-background="new 0 0 1024 1024" xml:space="preserve">
<path fill="#000000" opacity="1.000000" stroke="none" 
	d="
M691.114502,35.667446 
	C693.724609,35.562668 695.912659,35.652401 698.033997,35.318398 
	C700.269531,34.966415 701.880737,35.144894 702.787231,37.593754 
	C703.814453,40.368378 701.767029,41.185020 700.099060,42.126591 
	C689.349426,48.194641 678.184753,53.287315 666.178223,56.386333 
	C658.194275,58.447086 650.231812,60.591198 642.284851,63.321747 
	C648.191223,63.275040 653.993225,65.629303 659.887329,63.628719 
	C670.894165,59.892757 682.243469,59.672802 694.307068,59.608097 
	C691.973450,64.876236 688.812439,68.379547 684.102661,70.563644 
	C685.265198,71.696243 686.827820,69.995461 687.470459,72.201950 
	C682.633972,75.299675 676.935181,76.143959 671.409607,77.095894 
	C659.779480,79.099525 648.430603,82.321030 636.892883,84.655113 
	C624.497375,87.162720 612.531372,91.109642 600.364502,94.379883 
	C596.884644,95.315170 594.169434,98.375542 590.193176,98.005791 
	C588.707947,95.108139 590.479065,92.760612 591.977295,91.164627 
	C597.453186,85.331375 602.369019,78.820831 609.668640,74.952263 
	C612.952209,73.212090 616.576294,72.573914 620.126099,71.780373 
	C622.654297,71.215202 624.299500,70.083534 625.019165,66.999725 
	C618.632141,65.404099 612.582031,69.365051 605.962341,67.686920 
	C607.788391,63.074280 609.930481,59.085632 613.927246,56.365261 
	C620.645813,51.792351 627.285461,47.384872 635.722778,46.019890 
	C642.376282,44.943504 648.036133,40.590286 654.336609,38.169804 
	C656.541870,37.322582 658.998413,34.321274 660.982422,39.159595 
	C661.594421,40.651989 665.323608,39.735710 667.597717,39.386215 
	C675.294434,38.203293 682.975891,36.920341 691.114502,35.667446 
z"/>
<path fill="#000000" opacity="1.000000" stroke="none" 
	d="
M365.251984,78.778091 
	C362.596252,85.307266 361.232147,86.153427 355.600769,83.813148 
	C334.436523,75.017708 312.452789,68.079193 292.634827,56.214554 
	C291.129883,55.313572 289.676361,54.326698 288.415894,52.888634 
	C296.606445,52.695564 304.255371,55.114906 312.225433,56.171768 
	C298.311676,45.264652 282.461639,38.197826 265.709351,32.449242 
	C272.657043,29.341423 279.835114,28.536749 287.232208,28.631161 
	C294.563751,28.724737 300.580109,34.399139 308.482758,33.569988 
	C304.756744,29.177088 299.244324,26.651056 297.496338,20.146870 
	C301.859802,20.396297 304.661774,22.778032 307.769806,23.929720 
	C315.740631,26.883326 324.587036,27.191408 331.780273,32.684822 
	C337.399628,36.976273 341.164642,42.957554 346.649170,47.283047 
	C355.035370,53.897003 359.159882,63.508244 364.008301,72.565125 
	C364.907104,74.244087 364.876923,76.420372 365.251984,78.778091 
z"/>
<path fill="#000000" opacity="1.000000" stroke="none" 
	d="
M541.021362,207.368042 
	C538.053162,206.978333 534.564514,208.682236 533.339050,205.621674 
	C532.189331,202.750275 534.824829,200.364685 536.596008,198.239594 
	C544.752319,188.453186 555.182434,184.774582 567.921448,185.367035 
	C581.200562,185.984634 594.498596,186.192795 607.716675,187.698181 
	C615.243591,188.555420 622.856628,189.185074 630.302124,192.138519 
	C628.363525,195.518784 624.233704,195.301498 622.299744,197.964325 
	C623.501282,199.768890 625.943054,198.138947 628.026550,200.936813 
	C598.893372,206.613144 569.885681,203.460190 541.021362,207.368042 
z"/>
<path fill="#000000" opacity="1.000000" stroke="none" 
	d="
M572.190491,138.352173 
	C569.683472,138.042542 566.896667,138.970734 566.112427,136.292755 
	C565.413696,133.906494 567.118469,131.916245 568.647888,130.097656 
	C574.931091,122.626205 583.768127,121.292885 592.588989,120.806717 
	C606.382751,120.046463 620.223755,120.181969 634.029602,119.587357 
	C643.594421,119.175415 652.860840,121.113991 662.221924,122.351913 
	C663.675049,122.544083 665.818054,122.291473 666.134766,124.644249 
	C666.411682,126.700638 665.917053,128.313095 664.348572,130.007233 
	C659.995483,134.709198 654.212891,135.918808 648.483887,136.217728 
	C623.231812,137.535324 597.975830,139.102142 572.190491,138.352173 
z"/>
<path fill="#000000" opacity="1.000000" stroke="none" 
	d="
M564.517090,152.131592 
	C573.983215,149.890396 583.098083,151.914917 592.188599,151.947327 
	C602.803406,151.985184 613.422058,152.935059 624.025146,153.684311 
	C633.845032,154.378204 643.677429,155.102951 654.147034,157.250687 
	C651.403748,160.210526 648.165283,160.259323 645.659607,161.728180 
	C645.303589,163.123840 647.592529,162.400970 647.173035,164.275269 
	C644.189453,166.545502 640.152710,167.024170 636.362244,167.230072 
	C620.460327,168.093918 604.587708,169.125580 588.598450,168.732681 
	C579.216675,168.502136 569.697327,169.023560 560.242615,169.294189 
	C558.413757,169.346527 556.542786,169.504105 554.761963,169.199554 
	C553.051697,168.907043 550.829346,168.894226 550.093140,166.943054 
	C549.290833,164.816467 551.586365,163.911316 552.453003,162.414124 
	C555.209473,157.652130 558.093567,153.191803 564.517090,152.131592 
z"/>
<path fill="#000000" opacity="1.000000" stroke="none" 
	d="
M327.508148,280.582947 
	C308.806580,292.183899 291.497742,299.616730 282.516632,299.845093 
	C283.788177,293.215790 288.278809,288.446106 292.817383,284.539276 
	C304.889618,274.147522 315.943573,262.449554 329.990356,254.452057 
	C337.728882,250.046173 345.620880,246.660126 354.590851,249.910446 
	C358.238983,251.232346 361.543488,253.502533 365.168182,255.428314 
	C363.182343,257.136414 360.889008,257.041870 358.915314,257.804657 
	C356.903442,258.582214 354.612976,259.010406 353.280457,260.851013 
	C346.725159,269.905731 336.145966,273.678650 327.508148,280.582947 
z"/>
<path fill="#000000" opacity="1.000000" stroke="none" 
	d="
M710.362610,243.863251 
	C724.583191,241.089386 737.690918,242.200119 750.061462,249.843460 
	C764.372131,258.685516 775.360962,270.675659 784.752747,284.356995 
	C785.579102,285.560699 786.640198,286.727081 786.370056,289.260071 
	C756.643616,279.534027 731.445801,261.554657 703.900513,247.731598 
	C705.749084,244.922104 708.142029,244.960922 710.362610,243.863251 
z"/>
<path fill="#000000" opacity="1.000000" stroke="none" 
	d="
M304.569305,247.596710 
	C299.058533,251.370712 293.907532,255.027878 288.653229,258.530121 
	C273.077789,268.911896 257.629578,279.514191 240.283691,286.888184 
	C238.021820,287.849762 235.898926,289.138184 233.331665,290.472778 
	C232.996155,286.546875 234.271408,283.645599 236.661758,280.960144 
	C250.756775,265.124939 265.967499,250.596405 284.211914,239.515411 
	C289.740112,236.157791 295.340149,234.466232 301.905731,236.252747 
	C307.075012,237.659348 312.597137,237.777451 318.405487,240.689194 
	C313.369843,243.191391 309.125854,245.300232 304.569305,247.596710 
z"/>
<path fill="#000000" opacity="1.000000" stroke="none" 
	d="
M630.188232,110.376991 
	C613.943054,112.547287 598.056030,112.265343 582.066895,112.924461 
	C581.424683,108.162346 584.893188,106.856392 587.268433,104.773003 
	C596.733887,96.470413 608.502869,95.751122 620.174255,94.770798 
	C635.891357,93.450653 651.602844,91.750626 667.401672,93.638184 
	C670.972534,94.064804 674.617371,94.142639 677.805054,96.185059 
	C674.205505,104.509689 666.582642,105.744316 659.294312,106.913147 
	C649.804504,108.435013 640.201050,109.248314 630.188232,110.376991 
z"/>
<path fill="#000000" opacity="1.000000" stroke="none" 
	d="
M203.841217,253.814087 
	C216.092667,242.587036 229.509964,234.389069 245.776794,231.243866 
	C253.270752,229.794876 260.142670,232.315872 267.095703,232.761642 
	C267.671387,234.590302 266.821716,235.193329 265.909149,235.601898 
	C252.969101,241.395081 241.628265,250.196777 228.532333,255.637970 
	C221.983047,258.359100 216.280289,262.280701 210.629028,266.370178 
	C205.553940,270.042694 199.915192,272.448486 193.882141,273.877502 
	C190.452850,274.689789 187.427750,276.426239 182.813721,278.301453 
	C188.521957,267.960175 195.576965,260.614227 203.841217,253.814087 
z"/>
<path fill="#000000" opacity="1.000000" stroke="none" 
	d="
M642.447571,459.539307 
	C637.753113,455.971619 636.801636,450.474915 634.980286,445.641602 
	C629.832092,431.979828 627.225281,417.925873 629.438232,403.156006 
	C630.460449,396.333344 630.262756,389.327942 630.616211,382.443451 
	C633.458740,381.593781 634.551331,383.574432 635.719543,385.024994 
	C642.983948,394.045349 647.451416,403.912079 647.522156,415.954315 
	C647.593140,428.029053 649.195129,440.090759 649.983643,452.167450 
	C650.283142,456.754150 651.423157,461.506927 648.633057,466.698853 
	C647.355225,463.776733 646.461914,461.679199 645.522644,459.602509 
	C644.688049,457.757172 643.731262,458.031036 642.447571,459.539307 
z"/>
<path fill="#000000" opacity="1.000000" stroke="none" 
	d="
M219.364288,472.160217 
	C214.110107,486.978119 208.967590,501.419861 197.649689,512.521851 
	C196.942078,513.215942 196.255112,513.934875 195.503403,514.577820 
	C195.295471,514.755676 194.888702,514.701050 194.529953,514.760254 
	C193.758667,509.189972 194.920898,503.921844 196.550079,498.627136 
	C201.810028,481.532532 204.730667,463.764252 211.488037,447.090057 
	C213.677277,441.687958 216.147720,436.441254 218.715179,431.216614 
	C220.968704,426.630829 225.830093,425.165314 229.372025,421.628876 
	C228.324051,438.970367 224.520020,455.494507 219.364288,472.160217 
z"/>
<path fill="#000000" opacity="1.000000" stroke="none" 
	d="
M399.439453,148.399643 
	C403.098450,150.786697 406.401093,153.013992 409.068573,156.064926 
	C410.803497,158.049255 410.598846,159.390244 408.252808,160.782440 
	C403.545227,163.576004 398.440887,162.673569 393.636047,162.061172 
	C378.786072,160.168488 364.294434,156.666962 350.519104,150.596878 
	C344.701569,148.033401 339.463501,144.518692 334.358276,140.793137 
	C332.876923,139.712112 331.515656,138.446701 331.757294,136.324570 
	C340.080597,132.030975 382.832642,139.577820 399.439453,148.399643 
z"/>
<path fill="#000000" opacity="1.000000" stroke="none" 
	d="
M689.293579,435.059753 
	C691.883606,451.230377 693.097351,467.035065 692.082275,482.946045 
	C690.005554,483.623718 689.823730,481.784790 688.706299,480.872986 
	C688.433533,481.939758 688.183777,482.916321 687.738708,484.656830 
	C670.879272,458.354218 670.206848,429.561249 670.527283,399.960815 
	C682.458496,408.825745 686.950439,421.127380 689.293579,435.059753 
z"/>
<path fill="#000000" opacity="1.000000" stroke="none" 
	d="
M387.117188,283.171143 
	C377.806885,290.193359 367.734680,295.399078 358.654327,302.178650 
	C351.722565,307.354034 343.267609,309.571289 333.639984,311.211060 
	C335.967712,303.748962 338.529175,297.128540 343.518860,292.468750 
	C354.604553,282.115967 366.514954,272.737366 381.792908,269.066711 
	C389.956726,267.105316 396.822021,268.516205 403.285950,273.718414 
	C396.993103,275.346741 392.623749,279.842804 387.117188,283.171143 
z"/>
<path fill="#000000" opacity="1.000000" stroke="none" 
	d="
M302.885254,386.688049 
	C306.621063,385.658691 306.640015,387.451721 305.726868,389.751862 
	C304.069000,393.927979 302.687653,398.280792 300.485504,402.159393 
	C296.395844,409.362579 294.661652,417.333771 292.276978,425.084167 
	C287.580353,440.348541 279.800476,453.701202 268.440308,464.943542 
	C267.759521,465.617279 267.141174,466.539093 265.587738,466.077820 
	C265.211975,460.967682 267.163605,456.157532 268.242493,451.252899 
	C271.602875,435.976837 276.042847,421.010681 281.686279,406.408569 
	C282.521271,404.248230 283.133026,401.989868 283.693359,399.738342 
	C284.297302,397.311462 285.767700,394.584808 287.767151,394.447266 
	C293.976715,394.020203 297.504059,389.080200 302.885254,386.688049 
z"/>
<path fill="#000000" opacity="1.000000" stroke="none" 
	d="
M786.439636,246.399597 
	C804.001038,255.099136 831.742920,277.379364 837.287537,289.801971 
	C829.461304,287.770844 822.181458,285.540894 815.583557,281.299194 
	C801.455566,272.216492 787.245972,263.260712 773.068237,254.255478 
	C767.682434,250.834610 762.872498,246.804947 759.463928,241.313614 
	C758.794861,240.235657 757.685974,239.255066 758.538452,237.206772 
	C768.252808,238.413727 777.113647,242.533875 786.439636,246.399597 
z"/>
<path fill="#000000" opacity="1.000000" stroke="none" 
	d="
M711.535583,448.426910 
	C710.627258,441.119873 709.709473,434.278076 709.750793,427.384186 
	C713.121826,426.865234 713.744385,429.219757 714.872375,430.641815 
	C724.586060,442.887482 729.643494,456.812683 730.363708,472.476746 
	C730.882141,483.752960 732.040955,494.999817 732.914734,506.259705 
	C733.004089,507.410583 733.230347,508.588348 731.726257,510.039337 
	C726.014893,506.308014 726.786194,498.945251 722.874817,493.947906 
	C722.176453,495.978333 722.951111,498.275146 721.119934,500.899048 
	C713.855591,483.777283 711.244812,466.620544 711.535583,448.426910 
z"/>
<path fill="#000000" opacity="1.000000" stroke="none" 
	d="
M361.065918,184.704254 
	C385.015289,180.254593 425.021027,191.415619 433.029327,204.809143 
	C424.559387,207.170135 416.016022,206.495789 407.507050,206.107635 
	C401.612122,205.838699 395.887238,204.215607 389.928253,204.013138 
	C386.593506,203.899841 383.244019,202.145477 380.035706,200.807983 
	C372.963989,197.859863 366.092651,194.484756 359.986847,189.775696 
	C357.477234,187.840164 356.360077,185.886597 361.065918,184.704254 
z"/>
<path fill="#000000" opacity="1.000000" stroke="none" 
	d="
M667.774780,259.677917 
	C694.143494,264.815369 727.654358,283.975037 730.694580,295.394318 
	C725.194092,297.622864 720.363708,295.279755 715.134644,293.731995 
	C698.073059,288.682007 682.342773,280.999664 667.520020,271.312317 
	C663.932373,268.967621 660.487000,266.405121 656.846436,263.851685 
	C659.329651,259.212585 663.395447,259.605896 667.774780,259.677917 
z"/>
<path fill="#000000" opacity="1.000000" stroke="none" 
	d="
M419.510101,488.532104 
	C426.177185,497.632019 432.770905,506.364319 436.988312,517.451416 
	C422.147217,516.217651 412.780426,508.027405 404.286072,498.536652 
	C401.525055,495.451752 399.298950,491.917236 395.778076,489.523407 
	C392.832397,487.520691 392.059723,483.608582 392.664734,481.183136 
	C393.442657,478.064545 393.065186,475.419739 392.730469,472.510498 
	C392.177338,467.703003 393.333282,463.609955 398.602051,461.048492 
	C406.171478,469.578094 412.090607,479.417786 419.510101,488.532104 
z"/>
<path fill="#000000" opacity="1.000000" stroke="none" 
	d="
M328.708435,442.651184 
	C326.505859,444.779755 325.545959,447.827942 322.224457,448.350189 
	C319.158020,444.894806 321.329224,441.064972 321.916565,437.857544 
	C325.403870,418.813904 330.864960,400.397614 340.671112,383.464661 
	C343.165009,379.158295 346.705170,377.001923 351.233582,375.975616 
	C353.932861,375.363831 355.621643,376.226227 354.874481,379.351990 
	C349.528778,401.715973 343.589691,423.841766 328.708435,442.651184 
z"/>
<path fill="#000000" opacity="1.000000" stroke="none" 
	d="
M263.122314,416.801208 
	C259.123291,431.650543 254.722809,445.940308 249.124527,459.828918 
	C245.486725,468.853760 240.301056,476.973663 234.051498,484.418549 
	C233.127716,485.519043 232.456055,487.190582 230.524445,486.422668 
	C228.422623,485.587128 229.421432,483.815247 229.675369,482.530365 
	C232.545670,468.007904 236.226013,453.712524 241.594131,439.876221 
	C244.997498,431.104065 246.256805,421.288727 252.232697,413.811279 
	C255.459488,409.773773 259.377777,405.303436 266.114380,404.347534 
	C265.028534,408.872467 264.125366,412.636200 263.122314,416.801208 
z"/>
<path fill="#000000" opacity="1.000000" stroke="none" 
	d="
M542.058289,226.693039 
	C549.398560,223.434219 556.596985,225.497437 563.626343,225.940140 
	C571.901123,226.461288 580.136475,227.723434 588.456543,227.623001 
	C591.640381,227.584564 594.569336,228.357025 598.012024,229.400436 
	C596.173828,232.424606 593.314453,233.210083 590.938477,234.973145 
	C594.420288,237.909058 591.339905,238.385223 589.304138,238.959381 
	C581.748169,241.090500 573.958069,241.844894 566.168030,242.296555 
	C555.211670,242.931793 544.194885,241.555054 533.253479,243.202896 
	C531.245117,243.505371 529.214050,243.099960 527.448975,242.083832 
	C525.266418,240.827408 524.597168,238.539413 526.807373,237.314026 
	C532.173523,234.338898 535.440979,228.463547 542.058289,226.693039 
z"/>
<path fill="#000000" opacity="1.000000" stroke="none" 
	d="
M335.561676,91.155159 
	C352.778809,94.819946 368.625977,100.373413 381.236115,112.768211 
	C382.602905,114.111633 384.705872,114.936470 383.592621,117.588646 
	C382.473206,120.255508 380.210205,119.405502 378.434937,119.283852 
	C365.725769,118.413002 353.510529,115.435059 342.047119,109.822334 
	C332.767548,105.278870 324.145142,99.620163 315.831329,93.495697 
	C314.906250,92.814224 313.903259,92.183189 313.618591,90.496704 
	C317.070770,88.943031 320.530121,88.082916 324.413788,88.995995 
	C327.957428,89.829124 331.573669,90.353210 335.561676,91.155159 
z"/>
<path fill="#000000" opacity="1.000000" stroke="none" 
	d="
M372.999939,522.848755 
	C372.205688,516.013794 371.903076,509.624847 377.032501,502.840027 
	C388.445770,522.845764 402.701538,539.925537 416.865753,557.030212 
	C414.648865,559.132141 412.766693,558.951965 410.729370,558.620483 
	C402.510895,557.283020 395.037445,554.462402 389.210846,548.218567 
	C383.828278,542.450500 376.744415,538.241455 373.314209,530.674255 
	C372.173981,528.158813 371.511017,525.759155 372.999939,522.848755 
z"/>
<path fill="#000000" opacity="1.000000" stroke="none" 
	d="
M436.793945,303.890411 
	C425.980103,309.757538 415.451263,315.361420 405.040009,321.175995 
	C397.427795,325.427338 389.381714,328.182709 380.013184,329.710785 
	C380.664948,323.058319 384.481049,318.642883 388.584137,315.250732 
	C397.394043,307.967285 405.964081,300.206848 416.626801,295.466522 
	C423.916412,292.225739 438.169952,295.381714 441.784882,301.281464 
	C440.627930,302.812500 438.571777,302.712250 436.793945,303.890411 
z"/>
<path fill="#000000" opacity="1.000000" stroke="none" 
	d="
M174.671188,249.603973 
	C191.482452,239.955353 195.663925,238.389481 202.834808,239.015076 
	C201.402283,251.437927 161.155914,279.865723 141.828629,281.681366 
	C148.337616,266.211700 161.276703,257.925720 174.671188,249.603973 
z"/>
<path fill="#000000" opacity="1.000000" stroke="none" 
	d="
M810.633850,252.411621 
	C806.410522,248.699341 802.475586,245.196075 797.445801,240.718140 
	C809.694641,241.274994 820.398804,242.864624 829.196289,249.442917 
	C842.518250,259.404297 856.107239,269.097412 868.173889,280.651978 
	C869.946411,282.349243 872.107422,283.747314 872.950317,287.212494 
	C848.842041,281.052216 830.518921,265.672668 810.633850,252.411621 
z"/>
<path fill="#000000" opacity="1.000000" stroke="none" 
	d="
M545.792358,541.835083 
	C541.477844,545.624146 537.063538,548.391296 530.968933,548.846313 
	C530.885986,544.211853 532.751953,540.307556 534.303101,536.408813 
	C540.359863,521.185791 551.514404,509.689087 562.611023,498.174194 
	C563.510437,497.240845 564.458008,496.221100 566.065735,497.009247 
	C568.014587,497.964630 569.114868,499.319275 569.329285,501.590546 
	C570.186340,510.667175 566.784546,518.206543 561.018127,524.857300 
	C556.115784,530.511475 551.054199,536.027710 545.792358,541.835083 
z"/>
<path fill="#000000" opacity="1.000000" stroke="none" 
	d="
M774.733765,482.589111 
	C776.738159,478.454529 777.856201,481.371979 778.773682,482.855011 
	C790.402588,501.651581 794.771057,521.696655 788.934143,543.430420 
	C787.773438,547.752197 786.592651,552.071167 785.286316,556.350281 
	C784.667480,558.377319 783.676758,560.267761 781.615601,561.844482 
	C780.106934,559.547974 780.925842,557.348328 780.633118,555.268738 
	C778.090088,557.374878 777.668579,555.776855 777.687073,553.584473 
	C777.740540,547.259583 777.744507,540.932739 777.919556,534.610779 
	C778.399048,517.301270 777.500061,500.084259 774.733765,482.589111 
z"/>
<path fill="#000000" opacity="1.000000" stroke="none" 
	d="
M576.838196,481.817627 
	C576.491272,480.301849 576.041382,479.162964 576.048828,478.027039 
	C576.065369,475.477448 577.173157,472.907959 578.771667,471.363281 
	C580.618469,469.578644 582.771606,471.886902 584.524170,472.939911 
	C600.291138,482.413300 613.122925,500.998352 616.866150,519.604797 
	C607.886230,519.849243 583.250854,496.765411 576.838196,481.817627 
z"/>
<path fill="#000000" opacity="1.000000" stroke="none" 
	d="
M555.554138,606.733765 
	C553.399902,608.294373 551.690186,610.111450 548.482239,608.535339 
	C550.540039,587.800842 564.173645,573.034851 574.990662,556.824951 
	C584.137573,561.625122 583.858337,568.967957 579.993774,578.105957 
	C575.016968,589.874084 567.261841,599.906189 555.554138,606.733765 
z"/>
<path fill="#000000" opacity="1.000000" stroke="none" 
	d="
M762.505981,477.756775 
	C767.982117,493.373016 767.454468,509.199005 767.248718,524.985046 
	C767.224915,526.809570 766.965942,529.064575 764.676392,529.226929 
	C762.387329,529.389099 762.370178,526.909119 762.234497,525.500671 
	C761.854492,521.558167 758.911255,519.143738 757.223083,515.995422 
	C752.970215,508.064270 751.911438,499.262939 750.839905,490.539368 
	C749.606628,480.499451 748.759827,470.411774 747.783325,460.341125 
	C747.675720,459.231689 747.444946,457.995239 749.380493,456.653442 
	C756.195618,461.893372 759.309875,469.621796 762.505981,477.756775 
z"/>
<path fill="#000000" opacity="1.000000" stroke="none" 
	d="
M352.370605,496.360138 
	C355.576996,493.193878 358.528229,490.254120 361.517548,487.353607 
	C362.482697,486.417145 363.555481,485.492310 365.044495,486.218811 
	C366.567017,486.961670 366.372437,488.463043 366.242401,489.731384 
	C364.173889,509.908936 355.277466,523.980896 335.242859,533.322876 
	C332.758972,534.481140 330.170654,534.826965 326.700897,533.493958 
	C332.191437,519.007812 341.625977,507.450531 352.370605,496.360138 
z"/>
<path fill="#000000" opacity="1.000000" stroke="none" 
	d="
M507.121643,497.443237 
	C515.206665,479.599762 524.025940,462.780701 541.096802,451.303467 
	C544.416504,456.465851 543.815308,461.428955 542.704346,466.130157 
	C539.920715,477.909790 531.238159,485.743347 523.166504,493.879669 
	C521.271057,495.790344 519.684387,498.311920 516.893799,499.036194 
	C515.062317,497.672333 517.410339,496.591888 516.740601,495.305573 
	C514.721252,497.127472 512.756470,498.952942 510.191467,499.831879 
	C508.387848,500.449860 506.777649,500.533722 507.121643,497.443237 
z"/>
<path fill="#000000" opacity="1.000000" stroke="none" 
	d="
M598.846313,564.141968 
	C590.439514,554.547302 581.993469,545.327698 582.703735,531.540039 
	C596.544067,531.073120 617.811035,557.854614 619.807861,578.299866 
	C609.959106,577.662720 605.147583,570.062317 598.846313,564.141968 
z"/>
<path fill="#000000" opacity="1.000000" stroke="none" 
	d="
M371.024170,599.839478 
	C365.771637,591.568970 363.342560,582.978149 364.686676,573.509888 
	C365.082184,570.723816 365.581299,567.957886 368.948517,565.958618 
	C378.655518,583.643433 394.711578,597.825745 395.995544,619.931396 
	C386.044006,615.329224 378.153290,608.351135 371.024170,599.839478 
z"/>
<path fill="#000000" opacity="1.000000" stroke="none" 
	d="
M351.659729,613.095703 
	C352.328705,609.581543 352.837585,606.471741 353.713226,603.468811 
	C354.250336,601.626831 354.903809,599.223450 357.304199,599.240540 
	C359.335815,599.254883 360.059784,601.392273 360.816132,603.041626 
	C363.947815,609.870605 365.747833,617.080811 366.781860,624.491455 
	C368.267670,635.139648 370.114166,645.752258 370.273987,656.541687 
	C370.297302,658.116028 370.815857,659.827759 369.321991,661.679016 
	C360.219055,652.536682 352.841827,642.787537 351.566010,629.406189 
	C351.057556,624.073425 351.438568,618.829468 351.659729,613.095703 
z"/>
<path fill="#000000" opacity="1.000000" stroke="none" 
	d="
M393.662048,235.450867 
	C390.632599,233.840057 388.408936,231.982269 387.464417,228.523041 
	C390.012817,227.006805 392.702301,227.586319 395.199768,227.741913 
	C403.634460,228.267456 412.084320,228.763733 420.474701,229.734818 
	C431.592926,231.021576 439.917419,237.543625 448.247986,245.314560 
	C442.656860,247.779510 437.439758,248.061203 431.986267,247.880524 
	C418.103790,247.420578 405.868927,242.134674 393.662048,235.450867 
z"/>
<path fill="#000000" opacity="1.000000" stroke="none" 
	d="
M397.388916,389.268463 
	C389.429871,403.572235 382.471497,418.089844 371.156494,430.335297 
	C368.293579,425.902954 370.420868,421.931641 371.002716,418.278442 
	C373.287689,403.932159 378.810120,390.920166 388.272034,379.680542 
	C391.108582,376.311066 394.770630,374.647675 398.693787,373.210724 
	C400.344971,372.605927 401.694366,373.206726 402.711365,374.372437 
	C403.714294,375.522125 403.232300,376.882233 402.651581,378.121124 
	C400.959991,381.729797 399.256042,385.332703 397.388916,389.268463 
z"/>
<path fill="#000000" opacity="1.000000" stroke="none" 
	d="
M572.199707,630.317749 
	C575.767761,620.780029 579.167175,611.588379 582.587463,602.404480 
	C583.166870,600.848816 583.834778,599.326111 584.464294,597.789307 
	C585.356506,595.610840 586.996521,593.865295 589.286072,594.147644 
	C591.947632,594.475891 592.063049,597.260864 592.211548,599.280945 
	C592.813049,607.465515 592.309448,615.541199 589.070679,623.255127 
	C584.436157,634.293335 578.059998,644.100647 568.918152,651.958130 
	C567.067200,653.549011 565.130676,655.104980 561.645630,655.231140 
	C565.256958,646.695129 568.647644,638.680725 572.199707,630.317749 
z"/>
<path fill="#000000" opacity="1.000000" stroke="none" 
	d="
M653.093567,307.116089 
	C643.519592,303.026703 635.838562,296.473999 627.068237,291.720276 
	C623.960388,290.035797 621.519409,286.638580 618.858582,283.958374 
	C616.449036,281.531250 618.299072,280.120453 620.935364,279.750946 
	C625.846313,279.062531 630.586243,280.043182 635.021057,282.025482 
	C648.324707,287.971954 660.460938,295.685059 670.529724,306.370605 
	C672.340698,308.292511 672.287109,308.343018 672.898071,312.054749 
	C665.864441,312.328156 659.640198,309.865540 653.093567,307.116089 
z"/>
<path fill="#000000" opacity="1.000000" stroke="none" 
	d="
M590.707520,382.849915 
	C590.833557,378.749146 590.223999,375.088257 591.105835,371.411407 
	C594.294434,370.796082 595.760071,373.112518 597.111511,375.028595 
	C603.358521,383.885590 607.404724,393.552185 607.354736,404.622864 
	C607.316406,413.101807 607.353943,421.581085 607.321167,430.060059 
	C607.314880,431.681213 607.600891,433.704193 605.396545,434.093140 
	C603.489685,434.429626 603.001343,432.561707 602.414978,431.269775 
	C596.557617,418.363220 591.678894,405.197784 591.593506,390.730927 
	C591.578918,388.260742 591.023621,385.793732 590.707520,382.849915 
z"/>
<path fill="#000000" opacity="1.000000" stroke="none" 
	d="
M340.916656,561.015808 
	C344.555145,555.411133 347.985168,550.108704 351.472290,544.844055 
	C352.576538,543.177002 353.764221,541.329285 356.174072,541.846985 
	C358.916504,542.436096 358.967499,545.054443 359.160309,547.020264 
	C359.674652,552.264038 358.157745,557.291016 356.124237,562.003479 
	C350.464111,575.120239 341.893250,586.273621 332.009460,596.946838 
	C329.436249,594.309021 329.594604,591.512451 330.050812,588.544006 
	C331.569305,578.662659 336.036346,569.957275 340.916656,561.015808 
z"/>
<path fill="#000000" opacity="1.000000" stroke="none" 
	d="
M509.480835,845.223999 
	C512.539490,846.653809 515.369324,847.760437 517.235962,850.256836 
	C520.225098,854.254456 518.728394,858.020691 513.759277,858.219849 
	C504.485779,858.591553 495.188049,858.716064 485.960541,857.306274 
	C482.068848,856.711609 480.818787,854.005676 482.016724,850.784668 
	C483.682007,846.307251 486.557587,842.822327 492.062531,842.651489 
	C497.911682,842.470093 503.661377,842.669006 509.480835,845.223999 
z"/>
<path fill="#000000" opacity="1.000000" stroke="none" 
	d="
M564.264526,266.980713 
	C567.482788,269.727112 564.631714,270.232941 563.135010,271.231812 
	C553.677673,277.543457 542.670105,278.562653 531.887817,280.245514 
	C529.148132,280.673126 526.428345,281.945801 523.255310,280.926392 
	C522.008179,279.113434 523.826233,274.796478 518.157166,275.918549 
	C521.874573,268.903717 527.585999,267.822052 533.166382,266.692505 
	C543.397217,264.621643 553.640686,265.937958 564.264526,266.980713 
z"/>
<path fill="#000000" opacity="1.000000" stroke="none" 
	d="
M443.223694,186.290955 
	C431.528259,178.284454 432.530151,167.105743 435.116272,155.708954 
	C436.005096,151.791901 436.225800,147.562744 438.620697,143.621414 
	C441.987793,145.857590 443.707825,149.195816 444.659943,152.102783 
	C447.325653,160.242050 450.386261,168.426712 449.380005,177.344009 
	C448.918060,181.437698 447.521790,184.682449 443.223694,186.290955 
z"/>
<path fill="#000000" opacity="1.000000" stroke="none" 
	d="
M515.988037,986.848328 
	C513.675171,989.151489 511.010406,989.264648 508.348511,989.294128 
	C501.037598,989.375061 493.725525,989.424011 486.465759,988.330750 
	C482.370209,987.713989 480.818695,985.389832 482.065216,981.757996 
	C484.388672,974.988464 491.363251,971.592529 500.637115,972.715210 
	C508.388245,973.653625 515.666626,980.102417 515.988037,986.848328 
z"/>
<path fill="#000000" opacity="1.000000" stroke="none" 
	d="
M483.874084,922.649170 
	C480.072693,919.763000 481.461853,912.365112 485.847931,909.856934 
	C491.141418,906.829773 508.596893,908.666748 513.081238,912.732849 
	C515.086182,914.550781 516.785889,916.592896 517.210083,919.371399 
	C517.565552,921.699524 516.836060,923.458191 514.149536,923.375488 
	C504.190186,923.068909 494.209198,923.985107 483.874084,922.649170 
z"/>
<path fill="#000000" opacity="1.000000" stroke="none" 
	d="
M379.710297,85.106110 
	C377.033020,77.410011 374.465057,70.086609 371.771973,62.406376 
	C374.023499,62.185570 375.432098,63.357960 376.935486,64.609222 
	C381.884399,68.728210 386.393829,73.380775 391.004150,77.800812 
	C395.653351,82.258163 398.539185,88.685463 398.286102,95.686340 
	C398.098083,100.886864 395.105988,102.230522 390.673462,99.753952 
	C384.904388,96.530640 381.861511,91.433228 379.710297,85.106110 
z"/>
<path fill="#000000" opacity="1.000000" stroke="none" 
	d="
M414.654938,104.892868 
	C418.640930,107.103439 420.248322,110.968727 421.373993,114.459534 
	C423.136017,119.923973 426.328125,125.546379 423.023590,131.623505 
	C420.815460,135.684296 419.197693,136.009689 415.728882,133.117462 
	C410.487244,128.747101 407.769836,123.370804 407.515350,116.368095 
	C407.306702,110.627243 406.460205,104.849052 404.697937,99.282196 
	C403.914673,96.807968 403.363434,94.260284 402.335541,90.323898 
	C408.928162,94.291794 410.691498,100.331261 414.654938,104.892868 
z"/>
<path fill="#000000" opacity="1.000000" stroke="none" 
	d="
M623.407776,321.819275 
	C609.443787,321.227051 597.279236,316.248383 585.946228,308.957916 
	C584.585327,308.082489 582.792114,306.933105 583.388062,305.104980 
	C584.054688,303.060364 585.711487,301.464294 587.884766,300.744415 
	C590.515564,299.872986 593.329834,300.098907 595.759644,300.957001 
	C605.548767,304.414001 614.799988,308.904633 621.898926,316.829865 
	C623.072205,318.139679 624.667603,319.413727 623.407776,321.819275 
z"/>
<path fill="#000000" opacity="1.000000" stroke="none" 
	d="
M502.321716,422.435394 
	C507.825623,414.042664 513.498230,406.329590 522.474121,401.758972 
	C525.538696,404.412720 525.268066,407.328888 524.543945,410.589203 
	C522.067139,421.741669 508.867523,434.879211 497.459991,437.001465 
	C497.084412,431.543365 499.827026,427.210205 502.321716,422.435394 
z"/>
<path fill="#000000" opacity="1.000000" stroke="none" 
	d="
M422.762817,410.695312 
	C420.985199,411.773621 420.023865,413.773712 417.474426,413.039215 
	C416.892334,409.047577 418.609314,405.401123 419.721405,401.740143 
	C422.964539,391.063751 429.343262,382.546692 438.487457,376.205536 
	C440.352936,374.911926 442.682068,372.822754 445.140656,374.853210 
	C447.903290,377.134766 445.527466,379.481171 444.395782,381.438293 
	C438.348480,391.896393 432.544159,402.560242 422.762817,410.695312 
z"/>
<path fill="#000000" opacity="1.000000" stroke="none" 
	d="
M498.434906,780.520508 
	C503.098297,780.115845 507.074738,781.024292 510.888245,782.939026 
	C516.647949,785.830811 517.718994,787.745483 516.902954,795.091492 
	C510.136902,795.615906 503.238831,795.513794 496.343170,794.990601 
	C493.871796,794.803101 491.387543,794.424561 488.979218,793.843201 
	C484.316254,792.717407 483.146179,789.037720 486.399384,785.436768 
	C489.453918,782.055969 493.518982,780.679932 498.434906,780.520508 
z"/>
<path fill="#000000" opacity="1.000000" stroke="none" 
	d="
M567.037476,372.096802 
	C572.483643,382.025848 574.308533,392.450012 575.367188,403.629303 
	C571.886963,403.241241 569.883484,402.228821 568.620728,399.798950 
	C563.257324,389.478455 557.855103,379.178131 552.464905,368.871521 
	C551.911865,367.814026 551.517212,366.739960 552.291992,364.806946 
	C558.381958,364.215942 562.894104,367.315430 567.037476,372.096802 
z"/>
<path fill="#000000" opacity="1.000000" stroke="none" 
	d="
M457.903748,197.155548 
	C458.849426,195.395584 459.171356,193.619797 460.976562,193.027527 
	C467.778900,198.245178 467.658508,225.567657 460.210754,235.232910 
	C456.978333,230.139862 453.611359,225.342575 454.008392,219.436295 
	C454.504486,212.056198 454.952820,204.558563 457.903748,197.155548 
z"/>
<path fill="#000000" opacity="1.000000" stroke="none" 
	d="
M440.179565,326.937164 
	C445.109863,325.335144 449.558075,323.566406 454.515686,323.574768 
	C459.135529,323.582550 462.795959,325.357513 466.064026,328.298340 
	C462.697723,335.466156 443.693939,339.173492 429.201447,335.523010 
	C430.272552,329.528687 435.984009,329.439636 440.179565,326.937164 
z"/>
<path fill="#000000" opacity="1.000000" stroke="none" 
	d="
M479.294678,274.012085 
	C481.567535,281.098877 483.030090,287.805206 480.343018,294.748138 
	C479.693451,296.426422 479.342621,298.233185 477.452271,299.000366 
	C470.480316,291.696686 468.038971,271.543884 473.182556,261.786011 
	C477.679382,264.588196 477.614014,269.580048 479.294678,274.012085 
z"/>
<path fill="#000000" opacity="1.000000" stroke="none" 
	d="
M500.998413,720.827026 
	C504.263336,721.066650 506.959351,721.645020 509.480621,723.155212 
	C512.355225,724.877075 512.264648,727.530334 511.914246,730.156616 
	C511.538086,732.976013 509.001099,733.133179 506.903534,733.203918 
	C501.743317,733.378052 496.566986,733.474915 491.411346,733.260559 
	C487.021698,733.078064 485.953033,730.922913 487.767761,726.923462 
	C490.334442,721.266846 495.799530,721.805359 500.998413,720.827026 
z"/>
<path fill="#000000" opacity="1.000000" stroke="none" 
	d="
M495.278381,675.198914 
	C490.314941,673.441223 489.423309,670.594604 492.299805,667.067749 
	C495.906281,662.645874 505.102509,661.452637 509.696198,664.799377 
	C511.792572,666.326721 512.737793,668.340149 512.048340,670.876648 
	C511.456573,673.053772 509.802887,674.101074 507.621307,674.288818 
	C503.656830,674.629883 499.688141,674.921936 495.278381,675.198914 
z"/>
<path fill="#000000" opacity="1.000000" stroke="none" 
	d="
M510.195587,615.185181 
	C509.704987,620.981873 505.055603,619.320740 502.126617,619.953247 
	C499.313385,620.560669 496.120026,619.972595 493.990356,617.454102 
	C493.159149,616.471130 493.704803,615.254944 494.321564,614.213440 
	C496.396240,610.709778 499.188995,608.555603 503.527527,608.611633 
	C507.742157,608.666077 509.147186,611.430359 510.195587,615.185181 
z"/>
<path fill="#000000" opacity="1.000000" stroke="none" 
	d="
M518.160889,309.949921 
	C521.681702,307.942139 525.048523,306.827728 528.763123,307.016479 
	C529.373108,312.676849 522.789978,318.352844 511.825897,321.740234 
	C511.085419,316.382507 513.791565,312.929260 518.160889,309.949921 
z"/>
<path fill="#000000" opacity="1.000000" stroke="none" 
	d="
M507.569031,565.442505 
	C506.839966,565.967468 506.455475,566.387451 506.002380,566.483337 
	C502.979889,567.123474 499.643921,569.797974 497.147919,565.819214 
	C495.773285,563.628052 499.879028,555.872498 502.767212,555.038818 
	C506.706726,553.901611 508.116913,556.649231 509.014526,559.685364 
	C509.590393,561.633362 509.640808,563.640137 507.569031,565.442505 
z"/>
</svg>