<svg xmlns="http://www.w3.org/2000/svg" xml:space="preserve" viewBox="0 0 912 912"><path d="M521.263 582c.003 5.166.127 9.836-.028 14.497-.13 3.923.075 7.437 5.3 8.405-6.829 1.573-13.35 1.53-20.173.076 5.408-1.034 5.448-4.77 5.4-8.776-.12-10.164-.034-20.331-.141-30.496-.024-2.31-.4-4.632-.785-6.92-.61-3.624-1.805-7.094-6.255-7.069-3.493.02-8.271 5.585-7.894 9.214 1.264 12.144.292 24.307.551 36.456.079 3.685.364 6.797 5.617 6.656-3.292 2.523-15.86 2.802-21.2.47 7.041-.491 6.038-5.118 6.049-9.124.027-9.999.015-19.998-.082-29.996-.021-2.146-.366-4.306-.742-6.427-.627-3.544-1.548-7.235-6.01-7.328-3.738-.079-7.39 4.319-7.516 8.741-.18 6.328-.07 12.664-.074 18.997-.004 6 .1 12-.023 17.997-.076 3.688.314 6.817 5.332 7.567-6.704 1.495-13.097 1.096-19.967.466 6.458-2.124 5.062-7.136 5.099-11.513.05-6.096.013-12.193.013-19.56-4.903 5.84-11.886 6.483-15.76 11.944-1.7 2.397-5.033 3.008-8.168 3.127-3.505.133-6.973.712-10.208 2.148-1.878.834-3.598 1.985-3.376 4.424.208 2.275 2.12 2.901 3.862 3.372 4.655 1.258 9.494 1.959 14.01 3.578 9.858 3.533 13.622 12.397 9.835 22.178-4.318 11.153-22.218 13.931-29.732 4.586-2.62-3.257-3.291-6.854-1.404-10.733.847-1.743 2.04-3.14 4.183-2.966 2.109.17 3.158 1.713 3.815 3.507 1.425 3.886.216 7.46-1.862 11.143 5.097 2.85 10.172 3.033 15.108 1.134 5.783-2.224 6.51-9.202 1.71-13.39-2.627-2.29-5.896-2.997-9.14-3.762-2.104-.496-4.255-.82-6.327-1.42-4.42-1.282-8.795-2.823-9.51-8.265-.798-6.09.874-11.216 6.413-14.602.953-.583 2.216-.836 2.669-2.296l-6.671-7.498c-2.825 4.493-10.996 1.892-11.67 7.921-.602 5.391-3.341 12.28 4.363 17.001h-19.345c5.227-1.853 5.167-5.931 5.123-10.013-.023-2.166-.18-4.35.037-6.495.363-3.584-.825-5.974-4.204-7.585-3.8-1.812-6.245-5.36-9.435-8.846-1.505 3.36-.834 6.342-.893 9.201-.101 4.831-.082 9.666-.01 14.498.056 3.691-1.034 8.106 5.48 8.668-7.146 1.61-13.59 1.127-20.305.324 5.196-1.562 5.416-5.381 5.32-9.342-.282-11.65.72-23.327-.717-34.953-.102-.827-.09-1.683-.31-2.477-.852-3.093-1.725-6.369-5.557-6.876-2.987-.395-7.696 3.818-7.74 7.326-.171 13.824 0 27.652-.035 41.479-.008 3.269 2.633 3.28 4.85 4.324-6.54 2.178-12.948 1.244-19.719.575 6.03-1.74 5.22-6.358 5.231-10.564.017-5.833-.002-11.666-.018-17.499-.004-1.706-.011-3.359-2.288-3.787-15.339-2.888-20.24-14.683-22.469-27.794-2.698-15.878.458-26.69 9.936-39.743-7.375-1.69-14.976.608-23.111-1.615 10.336-4.483 10.201-4.483 10.274-15.515.024-3.778-.998-5.952-4.67-7.655-6.795-3.15-11.009-9.067-13.887-15.803-8.521-19.94-7.998-39.443 3.236-58.316 2.82-4.735 6.818-8.215 11.827-10.386 2.817-1.221 3.69-3.16 3.23-5.938-.528-3.192-3.142-2.434-5.156-2.493-14.353-.427-18.951 3.718-20.22 18.131-.17 1.937-.163 3.908-1.838 6.532-1.308-3.844-.79-6.904-.685-9.876.152-4.315.731-8.624.716-12.934-.013-3.596 1.588-4.456 4.872-4.418 11.33.134 22.663.054 33.995.027 6.215-.014 6.448-.666 6.124-7.035-.957-18.84 2.91-36.411 14.805-51.575 12.743-16.244 31.68-17.474 46.5-3.12 11.12 10.77 17.83 24.389 24.488 38.032 6.57 13.463 11.27 27.815 19.198 40.63 2.478 4.006 4.91 8.129 9.961 11.272 0-7.376.207-13.81-.086-20.22-.15-3.284-2.025-5.52-5.818-5.543-3.981-.025-5.855-2.51-5.462-6.167.74-6.871 2.76-13.38 7.226-18.865 6.604-8.108 16.988-8.618 24.483-1.368 5.168 5 7.584 11.304 8.643 18.156.682 4.408 2.575 6.345 7.23 5.87 3.79-.389 7.657-.047 11.49-.012 1.541.015 3.374.1 3.5 2.01.54 8.156.877 16.325 1.296 24.645-2.644-.363-2.22-1.778-2.28-2.83-.253-4.538-1.315-8.9-3.024-13.077-2.66-6.507-6.805-8.849-13.719-8.314-2.45.189-3.42 1.085-3.704 3.593-1.233 10.906-4.473 20.648-14.304 27.311-3.662 2.482-2.058 6.98-.724 10.577 1.327 3.581 3.232 6.958 4.426 10.576 1.317 3.986 3.764 4.19 6.98 2.793 3.569-1.55 4.96-4.72 5.921-8.192.368-1.328-.436-3.06 1.977-4.32v28.867c-2.31-5.908-3.52-12.492-12.43-12.823.16 3.548.087 6.81.488 10.013 1.58 12.61-.98 24.503-6.265 35.851-3.24 6.957-2.324 9.087 5.247 10.384.598.102 1.151.462 2.094.858-2.532 2.756-5.539 1.826-8.02 1.57-5.826-.6-10.09 1.276-13.939 5.75-5.198 6.041-12.022 10.542-16.776 17.087-4.38 6.029-7.584 12.463-7.893 20.343 3.056.713 5.876 1.447 9 .924 1.123-3.028.426-6.361 2.189-9.19 1.656-2.657 3.74-4.28 6.886-4.043 2.966.222 4.303 2.425 4.888 4.975.7 3.05.448 6.066-2.193 8.231-2.117 1.735-4.005.892-5.674-.916-1.284-1.391-1.576-3.177-1.974-5.077-2.447 2.846-2.256 6.143-.315 8.337 6.844 7.737 7.398 16.712 5.834 26.302 5.055-1.19 10.016-5.678 9.794-10.117-.278-5.55 3.456-12.43-4.634-16.497 4.283-.929 8.1-1.808 11.941-2.574 3.058-.61 2.041 2.344 3.07 3.744 7.944-5.154 15.078-3.571 21.506 3.102 2.74-2.51 4.909-5.324 8.667-5.93 8.4-1.355 14.571 2.989 16.405 11.458 1.467 6.78.559 13.615.851 20.918M414.84 340.63c-4.005-6.167-8.363-12.046-14.007-16.842-10.016-8.51-21.618-9.645-31.728-2.959-4.9 3.24-9.068 7.301-12.252 12.3-8.808 13.825-11.861 29.116-11.44 45.263.17 6.57.926 7.196 7.716 7.221 12.943.049 13.07.041 13.857 12.94.27 4.421 1.101 8.978-.539 14.27-2.57-4.39-1.428-8.612-2.795-12.3-1.335-3.604-2.419-7.35-5.311-10.045-3.288-3.063-7.218-2.72-11.405-1.724.2 5.074 1.709 9.665 3.508 14.08 4.813 11.812 11.18 22.394 23.729 27.62 4.147 1.727 8.4 2.045 12.708.9 2.991-.795 4.44-2.499 3.453-5.925-1.008-3.503-1.734-7.121-2.214-10.738-1.115-8.406-.606-16.677 3.609-24.268 2.567-4.625 6.792-6.941 12.066-6.428 5.303.516 7.461 4.456 8.55 9.137 2.575 11.077 1.396 21.218-7.623 29.245-1.44 1.281-2.007 2.51-1.38 4.338 4.263 12.424 8.504 24.856 13.106 38.324.272-13.84 2.271-26.028 8.863-37.077 4.435-7.434 10.43-12.971 19.133-14.902 2.308-.512 4.72-.55 7.44-.844-4.44-6.771-8.424-13.084-11.62-19.9-8.049-17.168-14.768-34.995-25.424-51.686m-51.211 86.469-4.248-3.228c6.129 21.32 8.227 42.367 10.766 63.267 2.205 18.146 4.28 36.273 8.346 54.1 1.183 5.188 1.718 10.917 6.91 14.564 3.685-6.22 9.309-7.444 15.627-5.726 6.299 1.712 8.503 6.717 9.497 12.758.876 5.329.382 10.635.623 15.946.084 1.868-.009 3.805 2.75 3.777 4.594-.048 8.423-4.508 8.055-8.999-.736-8.972.17-17.42 8.777-22.848 1.275-.804 1.75-2.021 1.598-3.423-.963-8.896-2.937-17.421-9.327-24.227-6.756-7.194-13.43-7.555-20.93-1.25-1.388 1.167-2.33 3.32-4.75 2.781-1.16-2.665.665-3.873 2.12-5.156 8.125-7.162 18.7-6.159 26.045 2.374 4.207 4.886 6.223 10.864 8.748 17.592 4.466-15.115 17.042-23.015 26.914-33.454-4.299-1.495-8.33.55-11.948-1.991.665-.522.982-.968 1.377-1.052 7.627-1.63 8.063-2.094 8.07-9.727.024-23.156.026-46.312.008-69.469-.005-6.182-1.693-7.892-7.865-8.45-5.606-.508-10.462 1.236-14.929 4.514-13.389 9.825-20.416 34.966-14.797 56.108 4.127-9.334 3.022-19.455 5.323-29.164 2.563 1.513 1.865 3.347 1.901 4.885.208 8.947-1.973 17.472-4.636 25.919-.536 1.7-1.666 3.382-.975 5.288 2.103 5.8 4.341 11.57 8.061 16.55 2.597 3.475 6.135 3.099 8.362-.82 1.93-3.395 2.367-7.22 2.577-11.072.09-1.65-.525-3.584 1.355-4.96 1.552 4.172.7 12.359-1.615 18.019-2.003 4.898-5.485 7.999-10.78 8.477-5.244.475-9.388-1.748-12.244-6.2-1.233-1.924-2.352-3.921-3.468-5.793-2.024.29-2.758 1.734-3.679 2.833-11.497 13.714-31.163 8.87-37.11-6.927-6.926-18.404-5.465-36.229 5.887-52.793.986-1.439 2.687-2.521 2.704-5.057-6.802-.907-13.26-2.898-19.1-7.966m-24.346-4.599v55.231c5.2-.782 6.21-6.201 10.368-7.245 1.43 2.1.246 3.455-.915 4.598-1.77 1.742-3.519 3.698-5.664 4.823-3.175 1.664-4.06 4.006-3.829 7.313.208 2.983-.071 6.004.178 8.981.416 4.956 2.468 6.377 7.342 5.135 7.45-1.898 13.77-.186 19.087 5.423 1.311 1.382 2.33 3.189 4.543 3.958.077-.816.267-1.465.178-2.073-2.96-20.19-4.336-40.6-8.063-60.676-2.485-13.387-4.923-26.855-12.258-38.755-2.535-4.113-5.634-7.48-10.966-9.915l-.001 23.202m.395 86.642c-12.233 15.347-12.66 38.862-.981 54.356 2.48 3.29 5.751 5.579 9.61 6.85 1.818.6 4.046 1.048 5.125-1.498 1.953-4.607-.377-14.67-4.377-17.744l12.718-2.485c2.04.878.621 3.205 2.72 3.871 3.291-4.326 8.47-2.43 13.57-3.389-3.506-11.367-2.991-23.358-8.786-33.431-8.572-14.902-16.935-15.278-29.6-6.53m-14.41-109.874c-1.681-1.056-2.869.21-4.026 1.004-4.164 2.857-7.584 6.39-10.169 10.81-6.136 10.495-7.556 21.89-6.752 33.73.73 10.75 4.144 20.517 11.329 28.703 2.466 2.81 5.26 5.398 9.068 5.855 1.167-1.037 1.134-2.074 1.131-3.055-.07-25.473-.156-50.947-.58-77.047m69.408 39.568c-.923-2.014-1.034-4.499-3.403-6.072-4.725 4.026-7.773 8.932-8.855 14.782-3.072 16.595-.583 32.39 7.586 47.213 1.209 2.194 2.908 4.027 4.84 5.655 4.314 3.637 8.417 2.249 12.228-.69 3.583-2.763 6.917-5.575 4.887-11.204-5.862-16.257-11.402-32.63-17.283-49.684m71.143-79.587c-.969.207-2.003.264-2.897.646-6.456 2.758-13.509 15.8-12.695 22.99.343 3.027 2.394 2.728 4.351 2.733 8.813.02 17.629-.13 26.439.029 4.326.078 5.194-1.97 4.327-5.628-.306-1.292-.516-2.609-.87-3.886-2.805-10.102-9.424-16.367-18.655-16.884m-64.645 60.354c1.866 2.83 2.718.103 3.578-.808 6.34-6.72 7.885-14.731 5.811-23.513-.92-3.9-2.114-8.043-6.924-8.688-3.152-.423-6.015 4.198-6.316 9.471-.029.497.007.998-.023 1.494-.44 7.425 1.415 14.463 3.874 22.044m-7.578 155.276c2.156 1.98 4.135 4.228 7.691 5.233.74-8.366.698-16.303-1.534-23.971-1.432-4.923-4.584-5.605-8.82-2.766-3.876 2.597-5.348 6.832-3.88 11.328 1.215 3.718 3.558 6.744 6.543 10.176m80.517-186.52c-2.319.817-1.967 2.86-1.983 4.608-.054 6.139-.04 12.279.04 18.418.018 1.398-.416 3.064 1.758 4.233 6.957-4.414 9.705-11.58 11.44-19.217 1.67-7.358.724-8.303-6.91-8.267-1.16.006-2.322.052-4.345.225m4.131 63.978c-1.05-2.096.491-6.353-3.739-5.764-3.906.545-2.27 4.277-2.32 6.626-.196 8.825-.088 17.656-.093 26.485v9.53c6.594-11.455 7.164-23.637 6.152-36.877m-32.617 119.43c.004-1.33.161-2.681-.017-3.986-.647-4.723-.12-9.716-2.954-13.963-1.464-2.194-3.543-3.037-6.05-2.068-2.33.9-2.451 3.012-2.136 5.044.355 2.285.799 4.592 1.543 6.774 1.635 4.79 3.144 9.742 8.086 12.335 1.261-1.05 1.29-2.245 1.528-4.137m-10.263-2.753-2.372-5.964c-.848 2.551-1.762 4.5-2.123 6.548-.885 5.028-.046 9.934 2.175 14.475 1.04 2.125 3.027 3.725 5.653 3.277 2.44-.417 3.982-2.136 5.064-4.373 1.295-2.678-.506-3.943-2.137-5.385-2.52-2.229-4.48-4.886-6.26-8.578m-89.91-170.079c1.655-3.59-.664-6.648-1.442-9.882-.229-.949-1.666-.866-2.663-.718-1.387.205-1.758 1.215-2.014 2.447-.966 4.643 1.929 6.557 6.118 8.153m126.8 41.802c.068 1.128.018 2.374 1.443 2.714.865.206 1.716-.175 1.812-1.113.2-1.97-.424-3.663-1.935-4.94-1.259.714-1.192 1.738-1.32 3.339zM810.948 392.972c9.45 7.703 13.412 18.019 15.701 29.115 3.538 17.15 3.749 34.357-.342 51.444-5.247 21.913-17.76 31.684-40.26 31.77-8.824.035-17.648.034-26.471-.057-1.648-.016-3.699.813-4.827-1.32.221-.35.339-.792.559-.85 8.57-2.287 8.584-2.282 8.582-11.56-.007-29.469.113-58.938-.14-88.404-.058-6.62 3.65-16-10.135-15.594 2.473-2.318 4.194-1.88 5.714-1.886 9.822-.04 19.645.043 29.467-.043 8.123-.072 15.391 2.292 22.152 7.385m1.73 75.31c.199-2.322.462-4.64.585-6.967.932-17.68.887-35.36-3.715-52.578C806.223 396.3 801.1 387.003 783.02 388c-4.79.264-5.77 1.857-5.75 6.213.149 31.492.08 62.985.08 94.478 0 3.5.006 6.998.013 10.497.003 1.599.321 2.828 2.206 3.37 10.289 2.96 22.168-2.129 27.286-11.802 3.571-6.748 4.743-14.142 5.823-22.473zM578.343 484.099c-2.307 6.012-5.035 11.361-9.59 15.464-12.43 11.196-30.417 8.748-39.87-5.372-6.095-9.104-8.534-19.454-9.69-30.114-2.025-18.673-1.503-37.196 4.252-55.297 1.27-3.994 3.085-7.749 5.246-11.297 11.064-18.172 33.856-18.042 44.81.205 5.602 9.33 8.21 19.635 9.235 30.307 1.807 18.797 1.94 37.523-4.393 56.104m-11.526-9.559c2.191-20.242 1.933-40.49-.39-60.683-.853-7.41-2.287-14.825-6.356-21.357-4.733-7.596-12.745-7.752-17.713-.365-2.552 3.793-4.07 8.04-4.937 12.453-4.82 24.567-4.17 49.303-1.689 74.026.677 6.748 2.245 13.48 6.018 19.377 5.138 8.029 13.99 8.021 18.85-.139 4.09-6.867 5.326-14.605 6.217-23.312zM171.218 496.732c-8.715-11.157-11.045-24.14-12.102-37.289-1.296-16.14-.803-32.279 3.873-47.99 2.057-6.913 4.95-13.452 9.878-18.865 10.849-11.915 27.66-11.532 37.94.84 6.139 7.387 9.167 16.172 10.88 25.415 3.929 21.207 4.002 42.316-2.215 63.192-1.199 4.025-2.961 7.772-5.22 11.285-10.317 16.042-29.835 17.716-43.034 3.412m37.443-59.02c-.36-6.307-.453-12.644-1.148-18.914-.824-7.423-1.9-14.858-4.747-21.853-2.073-5.093-4.87-10.148-11.004-10.233-6.384-.089-9.3 5.062-11.527 10.288-2.1 4.927-3.191 10.15-3.87 15.425-2.595 20.194-2.888 40.449-.935 60.705.797 8.269 2.073 16.518 6.194 23.958 2.218 4.005 5.351 6.839 10.257 6.786 4.973-.053 7.874-3.228 9.95-7.214 1.922-3.694 3.087-7.706 3.883-11.797 2.97-15.269 3.035-30.726 2.947-47.151zM721.432 475.485c-11.9-25.834-23.636-51.33-35.373-76.825l-.7.19c0 31.963-.007 63.927.005 95.89.002 4.786 1.6 8.193 7.2 7.978.48-.019.995.144 1.445.336.269.114.443.45 1.337 1.428-7.685 1.353-14.71 1.047-22.102.153.47-.977.556-1.454.74-1.495 8.694-1.946 8.714-1.942 8.718-11.146.014-29.658.074-59.316-.029-88.973-.024-6.88 2.828-15.684-9.703-16.005 5.38-2.123 10.311-.8 15.053-1.43 6.174-.82 9.337 1.475 11.935 7.378 10.928 24.83 22.502 49.374 34.441 75.332.157-2.646.302-3.964.303-5.281.017-21.827.015-43.653.022-65.48.002-7.843.005-7.834-7.802-9.64-.397-.091-.704-.578-1.917-1.632h21.429c-.19.527-.227 1.013-.406 1.073-8.107 2.71-7.988 2.707-8.075 11.709-.226 23.483.331 46.963-.357 70.454-.3 10.285.522 20.626-.061 30.947-.09 1.58.626 3.373-2.1 4.797-5.353-9.474-9.28-19.606-14.003-29.758zM288.443 488.168c-3.531 9.432-8.799 16.54-19.103 18.22-11.593 1.891-19.858-3.476-26.484-12.319-.761-1.016-.883-2.568-2.853-3.049-1.424 4.239.031 8.795-1.105 13.251-2.26-2.913-2.733-40.946-.014-48.637.428 4.223.934 8.439 1.267 12.67.659 8.382 2.38 16.46 6.666 23.808 5.195 8.903 13.337 13.234 21.38 11.462 7.671-1.69 14.484-10.306 15.491-19.592 1.506-13.877-3.247-22.476-15.985-28.488-4.507-2.127-9.274-3.705-13.774-5.846-7.665-3.646-12.503-9.65-14.504-17.998-2.298-9.587-2.348-19.119.252-28.62 5.188-18.96 22.446-24.617 37.831-12.446 1.407 1.113 2.81 2.233 4.27 3.395 2.16-2.16-.121-5.267 2.848-7.635v33.812c-2.735-1.478-1.758-3.912-1.885-5.826-.448-6.749-1.814-13.231-5.657-18.89-5.861-8.629-15.833-11.185-23.974-6.363-7.924 4.693-10.91 16.509-6.358 25.184 2.393 4.558 5.94 8.023 10.381 10.527 2.75 1.55 5.543 3.145 8.506 4.178 18.134 6.322 25.19 19.965 25.637 38.142.174 7.047-.634 13.942-2.833 21.06zM641.389 501.555c6.36-3.885 8.79-9.872 10.223-16.324 2.217-9.977 2.186-20.154 2.195-30.31.015-18.99.02-37.98.015-56.97-.003-8.024-.021-8.021-8.017-10.113-.478-.125-.935-.329-1.402-.496l.56-1.152h20.877c.023 1.347-.615 1.604-1.258 1.752-7.656 1.759-7.655 1.753-7.646 9.731.023 20.656.32 41.317-.057 61.966-.18 9.924-.198 19.968-3.26 29.658-3.383 10.702-9.976 16.558-19.67 17.057-14.212.732-23.564-4.113-28.082-14.538-3.784-8.732-4.762-18.047-4.911-27.355-.33-20.65-.147-41.31-.248-61.964-.034-6.865 2.309-15.236-10.195-14.963l1.157-1.296h31.868c-.438.675-.611 1.296-.938 1.391-8.298 2.425-8.325 2.416-8.322 11.117.01 23.488-.049 46.976.12 70.463.053 7.318.961 14.618 3.134 21.654 3.775 12.223 11.618 15.795 23.857 10.692zM129 505.286c-13.79.005-27.08.005-40.75.005.47-1.548.477-1.792.563-1.824 8.928-3.315 8.93-3.314 8.93-13.69 0-30.49.01-60.978-.01-91.468-.005-8.399-.045-8.396-8.136-10.537-.463-.123-.895-.362-1.731-.708 4.748-1.873 28.521-1.859 32.473-.274-.381.36-.66.849-1.042.952-7.982 2.16-8.006 2.15-8.01 10.524-.01 32.822.07 65.644-.098 98.465-.022 4.492 1.09 6.518 5.853 5.978 2.961-.335 5.994.013 8.99-.087 10.363-.344 16.429-4.872 19.6-14.686 1.23-3.804 2.068-7.696 2.104-11.743.016-1.712-.422-3.663 1.237-5.02 1.768.547 1.353 1.921 1.318 2.927-.317 8.986-.772 17.967-1.059 26.953-.103 3.246-1.67 4.331-4.739 4.256-4.995-.124-9.995-.03-15.493-.023zM543.145 591.871c.058 2.145.083 3.812.182 5.474.13 2.204.308 4.804 2.937 5.13 3.12.386 3.534-2.631 4.087-4.762.535-2.064.405-4.296.622-6.449.128-1.266.14-2.62 1.981-4.019.748 6.12.238 11.497-2.686 16.194-3.483 5.593-11.745 4.922-14.876-.922-1.454-2.714-1.762-5.673-1.753-8.718.036-11.829-.003-23.658.02-35.488.004-2.704.312-5.477-3.567-6.625 2.579-1.267 4.015-2.622 3.528-4.955-1.442-6.9 2.849-9.731 8.492-11.909 2.169 2.756 1.234 6.048 1.06 8.995-.287 4.876.744 7.849 6.44 6.884.758-.129 1.592.185 2.455.303-.221 2.266-1.913 1.942-2.977 1.827-5.124-.554-6.111 2.107-6.018 6.573.223 10.658.072 21.324.073 32.467zM562.6 593.542c4.468-.85 5.47 2.042 6.172 5.073.73 3.148.086 6.223-2.682 7.958-2.999 1.879-5.281-.013-6.052-2.885-.951-3.547-1.259-7.284 2.562-10.146z"/></svg>